<svg width="1024" height="1024" viewBox="0 0 1024 1024" fill="none" xmlns="http://www.w3.org/2000/svg">
<g clip-path="url(#clip0_2357_2)">
<path d="M808.268 306.678C817.401 305.779 826.215 306.813 835.128 308.73C830.823 320.858 824.188 332.989 815.403 342.46C803.559 355.229 788.312 362.006 770.976 362.735C760.035 362.578 751.606 360.81 742.205 355.082C746.224 348.351 750.3 341.665 755.158 335.492C768.532 318.496 787.037 309.257 808.268 306.678Z" fill="#A2B726"/>
<path d="M501.826 477.198C514.743 475.993 526.699 479.377 536.844 487.506C546.481 495.227 552.648 507.031 553.88 519.29C555.124 531.665 550.922 544.168 543.043 553.719C535.316 563.086 524.632 568.343 512.625 569.498C499.951 570.182 488.179 568.294 477.854 560.361C468.144 552.899 461.06 541.079 459.521 528.885C459.423 528.134 459.344 527.382 459.284 526.627C459.223 525.872 459.182 525.117 459.16 524.361C459.137 523.604 459.133 522.847 459.148 522.09C459.163 521.333 459.197 520.578 459.25 519.823C459.303 519.068 459.374 518.314 459.464 517.562C459.554 516.811 459.663 516.062 459.791 515.316C459.918 514.57 460.064 513.827 460.229 513.088C460.394 512.349 460.576 511.615 460.777 510.885C460.978 510.156 461.198 509.432 461.435 508.713C461.672 507.994 461.926 507.281 462.199 506.575C462.472 505.869 462.762 505.17 463.07 504.478C463.377 503.787 463.702 503.103 464.043 502.427C464.384 501.752 464.742 501.085 465.117 500.428C465.492 499.77 465.883 499.122 466.29 498.484C466.697 497.845 467.12 497.218 467.558 496.601C467.996 495.984 468.449 495.378 468.918 494.783C477.009 484.369 488.894 478.745 501.826 477.198Z" fill="#0B8235"/>
<path d="M754.848 184.089C761.305 191.943 765.825 204.35 768.798 214.064C777.117 241.247 778.405 268.353 764.621 294.039C761.768 299.296 758.534 304.309 754.92 309.076C749.859 315.747 733.14 335.031 725.595 337.273C709.9 313.595 699.877 283.578 704.997 255.058C710.241 225.846 731.034 200.668 754.848 184.089Z" fill="#E8B517"/>
<path d="M705.455 521.682C713.182 526.463 721.808 535.513 728.691 541.766C744.838 556.435 761.1 571.05 776.434 586.576L776.134 727.402L705.536 727.473C704.552 699.518 705.058 671.356 705.057 643.377C705.056 602.837 704.915 562.214 705.455 521.682Z" fill="#2CAD5C"/>
<path d="M316.362 524.559C317.447 530.264 316.644 537.49 316.634 543.363L316.536 584.397L316.54 732.865C293.049 732.519 269.556 732.41 246.063 732.537C245.776 726.531 246.125 720.511 246.197 714.502L246.267 687.484L246.211 586.943C254.612 578.752 263.74 571.087 272.445 563.203C286.824 550.183 301.307 536.789 316.362 524.559Z" fill="#2CAD5C"/>
<path d="M309.569 410.6C310.892 410.518 312.227 410.436 313.552 410.505C317.553 410.714 320.379 412.355 323.205 415.091C328.363 420.087 332.675 426.093 337.141 431.704C342.964 439.096 348.964 446.341 355.141 453.439C391.469 495.298 426.63 538.46 464.349 579.068C493.486 578.75 522.656 579.031 551.796 579.038C565.879 564.372 579.105 548.651 592.674 533.484L667.326 450.041C676.638 439.575 685.127 428.072 694.781 417.991C697.203 415.461 699.916 412.504 703.321 411.389C706.928 410.209 711.061 410.783 714.351 412.617C717.434 414.335 719.589 417.34 720.449 420.74C721.117 423.381 721.089 426.498 719.942 429.004C717.167 435.064 712.702 440.619 708.907 446.083C704.566 452.33 700.338 458.653 696.222 465.051C678.786 492.143 661.558 519.367 644.539 546.722C614.319 596.142 584.554 645.833 555.245 695.795C538.6 724.063 520.416 752.161 506.747 781.994C501.389 771.873 495.506 762.025 489.884 752.048L456.976 693.764C425.849 638.471 394.169 583.498 361.936 528.843C349.327 507.463 336.586 486.162 323.711 464.941C316.903 453.935 308.593 443.268 302.84 431.706C300.799 427.604 299.081 422.631 300.789 418.118C302.371 413.938 305.71 412.22 309.569 410.6Z" fill="url(#paint0_linear_2357_2)"/>
<path d="M510.525 181.914C524.283 191.837 536.714 204.168 549.408 215.425C572.277 235.521 595.016 255.762 617.627 276.148L863.469 499.586L767.86 499.429C751.037 484.65 734.076 469.744 718.138 454.013C720.409 451.024 722.698 448.047 725.003 445.084C730.555 437.86 734.915 430.329 733.493 420.799C733.43 420.367 733.356 419.937 733.271 419.509C733.186 419.081 733.09 418.655 732.985 418.232C732.879 417.809 732.763 417.388 732.636 416.97C732.509 416.553 732.372 416.139 732.225 415.728C732.078 415.317 731.921 414.91 731.754 414.507C731.587 414.104 731.409 413.705 731.222 413.311C731.035 412.916 730.839 412.527 730.633 412.142C730.426 411.758 730.211 411.379 729.986 411.005C729.761 410.631 729.526 410.263 729.283 409.9C729.04 409.538 728.788 409.182 728.527 408.832C728.266 408.482 727.997 408.139 727.719 407.802C727.441 407.465 727.155 407.136 726.861 406.814C726.567 406.491 726.265 406.176 725.955 405.869C725.646 405.562 725.329 405.262 725.004 404.97C724.679 404.679 724.348 404.395 724.009 404.12C723.671 403.844 723.326 403.577 722.974 403.319C722.625 403.062 722.269 402.814 721.907 402.575C721.545 402.336 721.177 402.107 720.804 401.886C720.431 401.665 720.052 401.454 719.667 401.253C719.283 401.052 718.894 400.86 718.501 400.678C718.107 400.496 717.709 400.324 717.306 400.163C716.904 400.001 716.498 399.849 716.088 399.708C715.678 399.567 715.265 399.436 714.848 399.315C714.431 399.195 714.012 399.085 713.589 398.986C713.167 398.887 712.743 398.798 712.316 398.72C711.889 398.642 711.461 398.575 711.031 398.518C710.601 398.462 710.17 398.417 709.737 398.382C709.305 398.347 708.872 398.323 708.439 398.31C708.005 398.297 707.571 398.295 707.138 398.304C706.704 398.313 706.271 398.333 705.839 398.364C705.406 398.395 704.975 398.436 704.544 398.489C704.113 398.542 703.684 398.605 703.257 398.679C691.893 400.628 683.814 409.587 677.545 418.558C671.248 413.956 665.544 407.91 659.77 402.651C650.363 394.16 640.904 385.728 631.391 377.355C591.433 342.067 551.89 306.189 511.276 271.664C500.461 280.91 489.936 290.537 479.337 300.032C458.765 317.91 438.609 336.288 418.172 354.324C393.388 376.196 368.322 397.828 344.258 420.493C337.248 412.398 330.215 402.444 319.391 399.404C312.739 397.536 305.786 398.541 299.818 401.983C294.164 405.245 290.151 410.416 288.537 416.753C284.617 432.14 295.584 443.15 302.507 455.388L302.797 455.909C286.825 470.602 270.733 485.163 254.522 499.592C243.425 500.302 232.032 499.669 220.896 499.612L160.419 499.43C175.14 484.722 191.178 471.285 206.568 457.283C233.736 432.565 260.672 407.724 288.167 383.363C287.481 369.736 287.962 355.848 287.978 342.196L288.047 268.097C307.535 267.74 327.118 267.959 346.612 268.126C346.98 288.329 346.564 308.568 346.727 328.778C375.869 302.139 405.178 275.684 434.653 249.414C459.887 226.814 484.775 203.935 510.525 181.914Z" fill="#2CAD5C"/>
</g>
<defs>
<linearGradient id="paint0_linear_2357_2" x1="529.059" y1="777.803" x2="509.065" y2="400.913" gradientUnits="userSpaceOnUse">
<stop stop-color="#06602C"/>
<stop offset="1" stop-color="#13943B"/>
</linearGradient>
<clipPath id="clip0_2357_2">
<rect width="1024" height="1024" fill="white"/>
</clipPath>
</defs>
</svg>
