<svg xmlns="http://www.w3.org/2000/svg" xmlns:xlink="http://www.w3.org/1999/xlink" width="1024" height="1024">
  <circle cx="509" cy="498" r="440" fill="white" />
<path fill="#A2B726" d="M808.268 306.678C817.401 305.779 826.215 306.813 835.128 308.73C830.823 320.858 824.188 332.989 815.403 342.46C803.559 355.229 788.312 362.006 770.976 362.735C760.035 362.578 751.606 360.81 742.205 355.082C746.224 348.351 750.3 341.665 755.158 335.492C768.532 318.496 787.037 309.257 808.268 306.678Z"/>
	<path fill="#0B8235" d="M501.826 477.198C514.743 475.993 526.699 479.377 536.844 487.506C546.481 495.227 552.648 507.031 553.88 519.29C555.124 531.665 550.922 544.168 543.043 553.719C535.316 563.086 524.632 568.343 512.625 569.498C499.951 570.182 488.179 568.294 477.854 560.361C468.144 552.899 461.06 541.079 459.521 528.885Q459.374 527.759 459.284 526.627Q459.193 525.495 459.16 524.361Q459.126 523.226 459.148 522.09Q459.171 520.955 459.25 519.823Q459.329 518.69 459.464 517.562Q459.599 516.435 459.791 515.316Q459.982 514.197 460.229 513.088Q460.476 511.98 460.777 510.885Q461.079 509.791 461.435 508.713Q461.79 507.634 462.199 506.575Q462.608 505.516 463.07 504.478Q463.531 503.441 464.043 502.427Q464.555 501.414 465.117 500.428Q465.68 499.441 466.29 498.484Q466.901 497.526 467.558 496.601Q468.215 495.675 468.918 494.783C477.009 484.369 488.894 478.745 501.826 477.198Z"/>
	<path fill="#E8B517" d="M754.848 184.089C761.305 191.943 765.825 204.35 768.798 214.064C777.117 241.247 778.405 268.353 764.621 294.039Q760.341 301.925 754.92 309.076C749.859 315.747 733.14 335.031 725.595 337.273C709.9 313.595 699.877 283.578 704.997 255.058C710.241 225.846 731.034 200.668 754.848 184.089Z"/>
	<path fill="#2CAD5C" d="M705.455 521.682C713.182 526.463 721.808 535.513 728.691 541.766C744.838 556.435 761.1 571.05 776.434 586.576L776.134 727.402L705.536 727.473C704.552 699.518 705.058 671.356 705.057 643.377C705.056 602.837 704.915 562.214 705.455 521.682Z"/>
	<path fill="#2CAD5C" d="M316.362 524.559C317.447 530.264 316.644 537.49 316.634 543.363L316.536 584.397L316.54 732.865Q281.303 732.346 246.063 732.537C245.776 726.531 246.125 720.511 246.197 714.502L246.267 687.484L246.211 586.943C254.612 578.752 263.74 571.087 272.445 563.203C286.824 550.183 301.307 536.789 316.362 524.559Z"/>
	<defs>
		<linearGradient id="gradient_0" gradientUnits="userSpaceOnUse" x1="529.05945" y1="777.80322" x2="509.065" y2="400.91287">
			<stop offset="0" stopColor="#06602C"/>
			<stop offset="1" stopColor="#13943B"/>
		</linearGradient>
	</defs>
	<path fill="url(#gradient_0)" d="M309.569 410.6C310.892 410.518 312.227 410.436 313.552 410.505C317.553 410.714 320.379 412.355 323.205 415.091C328.363 420.087 332.675 426.093 337.141 431.704Q345.875 442.792 355.141 453.439C391.469 495.298 426.63 538.46 464.349 579.068C493.486 578.75 522.656 579.031 551.796 579.038C565.879 564.372 579.105 548.651 592.674 533.484L667.326 450.041C676.638 439.575 685.127 428.072 694.781 417.991C697.203 415.461 699.916 412.504 703.321 411.389C706.928 410.209 711.061 410.783 714.351 412.617C717.434 414.335 719.589 417.34 720.449 420.74C721.117 423.381 721.089 426.498 719.942 429.004C717.167 435.064 712.702 440.619 708.907 446.083Q702.396 455.454 696.222 465.051Q670.068 505.689 644.539 546.722Q599.209 620.852 555.245 695.795C538.6 724.063 520.416 752.161 506.747 781.994C501.389 771.873 495.506 762.025 489.884 752.048L456.976 693.764Q410.286 610.825 361.936 528.843Q343.023 496.773 323.711 464.941C316.903 453.935 308.593 443.268 302.84 431.706C300.799 427.604 299.081 422.631 300.789 418.118C302.371 413.938 305.71 412.22 309.569 410.6Z"/>
	<path fill="#2CAD5C" d="M510.525 181.914C524.283 191.837 536.714 204.168 549.408 215.425Q583.711 245.569 617.627 276.148L863.469 499.586L767.86 499.429C751.037 484.65 734.076 469.744 718.138 454.013Q721.545 449.529 725.003 445.084C730.555 437.86 734.915 430.329 733.493 420.799Q733.398 420.151 733.271 419.509Q733.143 418.867 732.985 418.232Q732.826 417.597 732.636 416.97Q732.446 416.344 732.225 415.728Q732.005 415.111 731.754 414.507Q731.503 413.902 731.222 413.311Q730.942 412.719 730.633 412.142Q730.323 411.566 729.986 411.005Q729.648 410.444 729.283 409.9Q728.918 409.357 728.527 408.832Q728.136 408.307 727.719 407.802Q727.302 407.297 726.861 406.814Q726.42 406.33 725.955 405.869Q725.491 405.408 725.004 404.97Q724.517 404.533 724.009 404.12Q723.502 403.706 722.974 403.319Q722.45 402.934 721.907 402.575Q721.364 402.217 720.804 401.886Q720.244 401.555 719.667 401.253Q719.091 400.951 718.501 400.678Q717.91 400.405 717.306 400.163Q716.703 399.92 716.088 399.708Q715.473 399.496 714.848 399.315Q714.223 399.135 713.589 398.986Q712.956 398.837 712.316 398.72Q711.676 398.603 711.031 398.518Q710.386 398.434 709.737 398.382Q709.089 398.33 708.439 398.31Q707.788 398.291 707.138 398.304Q706.487 398.318 705.839 398.364Q705.19 398.41 704.544 398.489Q703.898 398.568 703.257 398.679C691.893 400.628 683.814 409.587 677.545 418.558C671.248 413.956 665.544 407.91 659.77 402.651Q645.66 389.914 631.391 377.355C591.433 342.067 551.89 306.189 511.276 271.664C500.461 280.91 489.936 290.537 479.337 300.032C458.765 317.91 438.609 336.288 418.172 354.324C393.388 376.196 368.322 397.828 344.258 420.493C337.248 412.398 330.215 402.444 319.391 399.404C312.739 397.536 305.786 398.541 299.818 401.983C294.164 405.245 290.151 410.416 288.537 416.753C284.617 432.14 295.584 443.15 302.507 455.388L302.797 455.909Q278.839 477.948 254.522 499.592C243.425 500.302 232.032 499.669 220.896 499.612L160.419 499.43C175.14 484.722 191.178 471.285 206.568 457.283C233.736 432.565 260.672 407.724 288.167 383.363C287.481 369.736 287.962 355.848 287.978 342.196L288.047 268.097C307.535 267.74 327.118 267.959 346.612 268.126C346.98 288.329 346.564 308.568 346.727 328.778Q390.44 288.819 434.653 249.414C459.887 226.814 484.775 203.935 510.525 181.914Z"/>
</svg>
