<svg version="1.1" id="Capa_1" xmlns="http://www.w3.org/2000/svg" xmlns:xlink="http://www.w3.org/1999/xlink" x="0px" y="0px"
	 viewBox="0 0 1200 1200" enable-background="new 0 0 1200 1200" xml:space="preserve">
<g>
	<path fill="none" d="M991.6,512.269c0.4,1.224,0.916,2.456,1.58,3.692C992.579,514.77,992.051,513.534,991.6,512.269z"/>
	<path fill="none" d="M552.57,828.998c-4.156,9.858-7.438,17.646-9.545,22.901c-9.349,23.324-8.959,34.241-7.568,39.003
		c9.47,7.89,19.493,15.504,29.983,22.267c-0.575-30.708-3.999-61.742-9.424-92.354C554.82,823.662,553.664,826.403,552.57,828.998z"
		/>
	<path fill="none" d="M993.24,516.089c-0.009,0.003-0.32,0.104-0.83,0.305C992.687,516.292,992.96,516.181,993.24,516.089
		C993.24,516.089,993.24,516.089,993.24,516.089C993.24,516.089,993.24,516.089,993.24,516.089z"/>
	<path fill="#FFFFFF" d="M993.242,516.085c-0.008-0.014-0.013-0.028-0.021-0.042c0.007,0.015,0.012,0.031,0.019,0.046
		C993.241,516.088,993.241,516.087,993.242,516.085z"/>
	<path fill="#FFFFFF" d="M993.24,516.089c-0.021-0.042-0.039-0.086-0.06-0.128c-0.664-1.236-1.18-2.468-1.58-3.692
		c-0.659-1.847-1.133-3.759-1.223-5.746c-0.154-3.369,0.411-6.757,1.52-9.957c1.13-3.196,2.79-6.177,4.695-8.97
		c1.819-2.607,3.849-5.03,6.171-7.254c-1.465-2.228-2.714-4.646-3.253-7.301c-0.593-2.842-0.64-5.779-0.231-8.637
		c0.46-2.847,1.305-5.608,2.421-8.241c0.974-2.255,2.091-4.396,3.46-6.475l-3.026-2.176l-1.83-1.751
		c-0.614-0.581-1.24-1.151-1.714-1.885c-2.269-2.567-3.617-6.116-3.734-9.661c-0.101-3.588,1.123-7.031,2.858-9.96
		c1.401-2.318,3.026-4.377,4.948-6.264c-0.715-0.582-1.425-1.171-2.109-1.796l-1.697-1.868l-0.845-0.94l-0.702-1.082
		c-2.054-2.742-3.122-6.366-3.116-9.882c0.01-3.555,1.152-6.955,2.795-9.897c1.276-2.23,2.719-4.23,4.465-6.087
		c-1.421-1.326-2.737-2.828-3.521-4.803c-1.218-2.747-1.343-5.939-0.649-8.71c0.665-2.806,1.995-5.233,3.491-7.437
		c0.92-1.325,1.891-2.541,2.952-3.713c-0.576-0.441-1.138-0.915-1.66-1.472c-1.314-1.411-2.354-3.235-2.811-5.183
		c-0.911-3.965,0.198-7.667,1.595-10.721c1.443-3.103,3.305-5.833,5.325-8.379c1.314-1.642,2.671-3.18,4.118-4.679
		c-0.734-0.589-1.445-1.23-2.094-1.994c-1.49-1.689-2.722-3.852-3.2-6.243c-0.499-2.386-0.246-4.816,0.38-6.945
		c0.626-2.147,1.59-4.062,2.689-5.803c2.207-3.489,4.888-6.423,7.723-9.104c1.875-1.757,3.789-3.378,5.805-4.932
		c-0.528-0.549-1.044-1.119-1.525-1.748c-1.394-1.71-2.599-3.808-3.224-6.218c-0.656-2.395-0.573-5.073,0.138-7.408
		c0.7-2.353,1.905-4.371,3.253-6.112c2.731-3.484,6.038-5.986,9.405-8.211c1.984-1.276,3.98-2.407,6.045-3.455
		c-0.079-0.105-0.165-0.197-0.242-0.305c-1.186-1.609-2.235-3.624-2.532-5.967c-0.318-2.337,0.232-4.729,1.166-6.615
		c0.931-1.918,2.173-3.447,3.47-4.773c1.684-1.695,3.484-3.086,5.334-4.327c-16.85-0.474-33.75,0.233-50.59,1.85
		c-21.228,2.396-42.339,5.923-63.249,10.513c-20.883,4.697-41.63,10.094-62.118,16.393c-15.032,4.639-30.017,9.655-44.741,15.165
		c3.337,3.415,6.514,6.747,9.471,9.951c2.465,2.67,5.002,5.444,7.591,8.297c10.057-4.693,20.229-8.727,30.605-12.491
		c15.407-5.488,31.048-10.227,46.917-13.952c15.88-3.64,31.854-6.84,47.999-8.749c8.032-1.217,16.148-1.753,24.219-2.522
		c8.08-0.685,16.201-0.834,24.282-1.276c-8.058,0.884-16.133,1.474-24.145,2.596c-8.003,1.206-16.026,2.177-23.943,3.824
		c-15.916,2.769-31.57,6.81-47.039,11.256c-15.457,4.531-30.596,10.043-45.39,16.241c-7.412,3.069-14.671,6.475-21.839,10.006
		c-1.645,0.831-3.295,1.679-4.94,2.537c4.313,4.829,8.752,9.872,13.284,15.111c0.282-0.134,0.558-0.284,0.841-0.414
		c6.09-2.969,12.331-5.521,18.611-7.92c12.58-4.746,25.463-8.454,38.448-11.513c6.525-1.41,13.026-2.859,19.611-3.872
		c6.54-1.237,13.153-1.997,19.739-2.841c6.58-0.881,13.225-1.212,19.818-1.843c6.619-0.389,13.246-0.586,19.853-0.887
		c-6.583,0.743-13.167,1.38-19.721,2.208c-6.526,1.069-13.086,1.836-19.556,3.148c-6.475,1.275-12.955,2.46-19.333,4.116
		c-6.427,1.432-12.739,3.291-19.049,5.102c-12.55,3.859-24.888,8.328-36.752,13.735c-5.544,2.555-11.022,5.24-16.305,8.214
		c4.308,5.06,8.678,10.279,13.081,15.638c10.069-3.328,20.247-6.264,30.544-8.658c12.854-2.92,25.776-5.485,38.831-7.021
		c6.494-0.977,13.055-1.412,19.578-2.029c6.532-0.552,13.095-0.675,19.623-1.032c-6.503,0.799-13.017,1.362-19.477,2.352
		c-6.451,1.055-12.919,1.924-19.297,3.329c-12.823,2.395-25.422,5.799-37.864,9.524c-9.156,2.792-18.165,6.012-27.024,9.553
		c5.202,6.422,10.432,13.031,15.64,19.787c6.246-1.877,12.533-3.584,18.873-5.047c11.341-2.561,22.737-4.808,34.248-6.158
		c5.725-0.856,11.51-1.241,17.26-1.782c5.756-0.487,11.541-0.596,17.293-0.911c-5.724,0.757-11.458,1.306-17.143,2.23
		c-5.676,0.978-11.365,1.797-16.973,3.082c-11.276,2.208-22.347,5.293-33.275,8.658c-5.389,1.688-10.719,3.544-15.99,5.538
		c4.598,6.054,9.165,12.22,13.669,18.475c3.937-1.1,7.889-2.135,11.867-3.045c9.827-2.201,19.698-4.131,29.664-5.294
		c9.935-1.351,19.94-1.937,29.906-2.326c-9.905,1.272-19.759,2.734-29.455,4.942c-9.727,2.02-19.272,4.787-28.686,7.791
		c-3.18,1.031-6.326,2.15-9.457,3.306c5.109,7.213,10.115,14.536,14.976,21.933c1.684-0.424,3.37-0.841,5.063-1.224
		c8.316-1.842,16.661-3.454,25.084-4.431c8.395-1.133,16.846-1.628,25.261-1.959c-8.345,1.213-16.639,2.584-24.791,4.572
		c-8.179,1.832-16.195,4.28-24.096,6.924c-1.087,0.369-2.162,0.768-3.243,1.155c5.06,7.849,9.937,15.772,14.571,23.733
		c5.559-1.145,11.134-2.135,16.748-2.781c6.857-0.915,13.756-1.319,20.619-1.593c-6.783,1.155-13.516,2.433-20.122,4.201
		c-5.008,1.242-9.935,2.762-14.799,4.414c4.357,7.641,8.479,15.308,12.311,22.968c1.372-0.202,2.746-0.385,4.123-0.541
		c5.319-0.697,10.668-1.012,15.982-1.229c-5.217,1.096-10.384,2.282-15.442,3.828c-1.063,0.305-2.118,0.633-3.17,0.967
		c5.861,11.954,10.998,23.875,15.2,35.635c0.683-0.607,1.401-1.173,2.156-1.677c1.592-1.05,3.299-1.914,5.08-2.574
		C992.92,516.193,993.231,516.092,993.24,516.089C993.24,516.089,993.24,516.089,993.24,516.089z"/>
	<polygon fill="#221E1F" points="1004.466,480.526 1004.456,480.546 1004.462,480.57 	"/>
	<path fill="#FFFFFF" d="M422.611,690.344c0.94-12.1,2.761-23.759,5.163-35.43c2.489-12.065,5.734-23.956,9.603-35.615
		c1.852-5.858,4.119-11.573,6.311-17.3c1.139-2.848,2.431-5.636,3.638-8.453l1.84-4.212l2.039-4.122l4.105-8.216l4.549-7.975
		l2.283-3.975l2.513-3.837l1.738-2.653c-1.258-2.552-2.498-5.037-3.729-7.49c-20.572,27.462-53.095,82.235-53.18,154.18
		c0.074,0.448,0.228,0.969,0.391,1.344c0.65-0.333,2-1.253,4.145-3.739c2.421-2.807,4.023-5.365,5.72-8.072
		C420.636,693.352,421.556,691.89,422.611,690.344z"/>
	<path fill="#FFFFFF" d="M481.698,590.87c-0.153,6.993,0.427,13.967,1.483,20.837c0.818,5.17,1.869,10.292,3.149,15.348
		c0.842,3.296,1.788,6.616,2.82,9.843c3.718-2.429,6.957-4.5,9.762-6.258C493.176,616.69,487.39,603.38,481.698,590.87z"/>
	<path fill="#FFFFFF" d="M445.732,642.492c1.28-9.37,3.186-18.633,5.632-27.729c1.126-4.572,2.659-9.035,4.04-13.523
		c1.668-4.401,3.089-8.878,5.037-13.158c2.864-7.176,6.453-14.016,10.246-20.705c-1.385-2.873-2.762-5.708-4.121-8.469l-1.484,2.559
		l-2.292,3.952l-2.057,4.082l-4.086,8.163l-3.629,8.372l-1.797,4.187l-1.594,4.271c-1.042,2.854-2.169,5.673-3.14,8.548
		c-1.859,5.783-3.787,11.531-5.299,17.409c-3.187,11.696-5.739,23.556-7.536,35.519c-1.21,8.02-2.115,16.159-2.662,24.224
		c3.185-3.263,7.273-6.989,12.747-11.397C443.791,659.818,444.54,651.188,445.732,642.492z"/>
	<path fill="#FFFFFF" d="M480.694,588.683c-1.635-3.573-3.262-7.091-4.877-10.529c-1.387,4.531-2.609,9.099-3.463,13.751
		c-1.39,7.092-2.389,14.245-2.857,21.433c-0.515,7.18-0.665,14.375-0.425,21.544c0.173,4.919,0.52,9.899,1.058,14.761
		c4.565-3.122,8.72-5.928,12.458-8.417c-0.903-4.392-1.575-8.689-2.13-13.071c-0.66-5.35-1.074-10.721-1.243-16.09
		c-0.172-5.369,0.027-10.746,0.484-16.071C479.932,593.54,480.273,591.102,480.694,588.683z"/>
	<path fill="#FFFFFF" d="M463.098,634.807c0.427-7.364,1.253-14.689,2.445-21.94c1.145-7.257,2.822-14.421,4.878-21.441
		c1.351-4.822,3.092-9.515,4.997-14.124c-1.525-3.241-3.035-6.402-4.536-9.517c-3.259,6.851-6.281,13.793-8.579,21.003
		c-1.62,4.351-2.708,8.881-4.039,13.312c-1.044,4.521-2.235,8.991-3.02,13.557c-1.761,9.079-2.976,18.253-3.57,27.451
		c-0.442,6.598-0.608,13.311-0.41,19.868c3.459-2.586,7.328-5.371,11.69-8.395C462.64,647.87,462.74,641.38,463.098,634.807z"/>
	<path fill="#FFFFFF" d="M1048.662,590.354c-3.789,0.067-7.525,0.39-11.299,0.832c-3.824,0.469-7.649,0.565-11.472,0.686
		c-7.641,0.131-15.282,0.048-22.874-0.615c-1.436-0.148-2.87-0.291-4.305-0.436c0.246,1.912,0.513,4.133,0.787,6.624l1.221,0.025
		c6.56,0.178,13.097,0.745,19.643,0.844c3.267,0.012,6.541,0.012,9.782-0.243c3.285-0.249,6.626-0.395,9.93-0.328
		c2.636,0.038,5.261,0.231,7.88,0.474c1.648-1.182,3.3-2.353,4.957-3.515c2.054-1.427,4.141-2.79,6.216-4.178
		C1055.639,590.33,1052.154,590.235,1048.662,590.354z"/>
	<path fill="#FFFFFF" d="M1040.079,599.07c-3.277,0.067-6.507,0.339-9.771,0.719c-3.309,0.394-6.619,0.527-9.928,0.649
		c-6.614,0.189-13.23,0.21-19.806-0.317c-0.266-0.026-0.531-0.05-0.797-0.076c0.205,1.972,0.41,4.077,0.61,6.328
		c4.823,0.119,9.634,0.46,14.446,0.502c2.76,0.01,5.522-0.018,8.264-0.201c2.779-0.188,5.605-0.283,8.396-0.219
		c1.752,0.031,3.497,0.144,5.24,0.284c3.274-2.675,6.634-5.201,10.03-7.659C1044.535,599.012,1042.308,598.982,1040.079,599.07z"/>
	<path fill="#FFFFFF" d="M1099.099,565.533c-8.209-1.036-16.439-1.55-24.681-1.357c-5.327,0.073-10.583,0.572-15.89,1.199
		c-5.369,0.645-10.736,0.69-16.1,0.747c-10.719-0.024-21.429-0.445-32.073-1.498c-4.78-0.539-9.56-1.054-14.326-1.677
		c0.348,2.433,0.644,4.853,0.876,7.254l11.21,0.669c9.615,0.576,19.204,1.471,28.815,1.726c4.796,0.05,9.614,0.119,14.363-0.332
		c4.803-0.433,9.687-0.741,14.528-0.676c6.867,0.073,13.719,0.717,20.493,1.685c4.072-2.476,8.147-4.935,12.215-7.389
		C1098.722,565.767,1098.908,565.648,1099.099,565.533z"/>
	<path fill="#FFFFFF" d="M1018.826,624.997c-1.499,0.045-2.997,0.088-4.488,0.189c-3.476,0.142-6.957,0.659-10.504,0.9
		c-0.71,0.058-1.419,0.119-2.129,0.178c0.093,2.07,0.129,4.157,0.194,6.237c3.779,0.035,7.556,0.124,11.331,0.309
		c0.053-0.078,0.103-0.157,0.156-0.235C1015.169,630.021,1016.95,627.495,1018.826,624.997z"/>
	<path fill="#FFFFFF" d="M1124.139,548.989c-10.761-1.723-21.682-2.439-32.549-2.244c-6.353,0.078-12.627,0.676-18.954,1.425
		c-6.392,0.772-12.792,0.79-19.18,0.803c-12.771-0.124-25.526-0.769-38.205-2.092c-6.332-0.734-12.664-1.429-18.973-2.312
		l-3.987-0.568c0.643,2.585,1.237,5.159,1.769,7.717c0.494,0.032,0.987,0.07,1.482,0.099l17.494,1.29
		c11.652,0.839,23.281,1.957,34.938,2.316c5.818,0.097,11.665,0.196,17.426-0.368c5.817-0.556,11.726-0.983,17.594-0.923
		c10.007,0.097,20.021,1.08,29.822,2.857c2.589-1.772,5.024-3.623,7.917-5.741C1121.857,550.468,1122.994,549.72,1124.139,548.989z"
		/>
	<path fill="#FFFFFF" d="M991.888,542.39c1.527,0.12,3.054,0.239,4.588,0.34l19.018,1.509c12.669,0.974,25.319,2.203,38,2.612
		c6.328,0.12,12.69,0.232,18.958-0.395c6.326-0.617,12.747-1.094,19.128-1.037c11.11,0.111,22.199,1.157,33.087,3.243
		c3.569-2.247,7.242-4.26,11.068-6.021c-3.444-0.754-6.899-1.366-10.415-1.772c-6.92-0.827-13.984-1.165-21.07-1.369
		c-14.178-0.375-28.446-0.377-42.698-0.314c-14.276,0.1-28.622-0.221-42.891-1.261c-7.135-0.569-14.261-1.272-21.337-2.356
		c-2.574-0.433-5.156-0.882-7.721-1.407C990.421,536.917,991.187,539.66,991.888,542.39z"/>
	<path fill="#FFFFFF" d="M1112.294,557.341c-9.726-1.431-19.505-2.08-29.289-1.881c-5.84,0.075-11.605,0.624-17.422,1.312
		c-5.88,0.709-11.765,0.74-17.64,0.775c-11.745-0.074-23.478-0.607-35.139-1.795c-5.823-0.667-11.647-1.289-17.449-2.094
		l-0.931-0.131c0.495,2.499,0.94,4.985,1.322,7.454l14.834,0.996c10.634,0.704,21.244,1.71,31.877,2.02
		c5.307,0.076,10.64,0.162,15.894-0.339c5.309-0.495,10.705-0.872,16.06-0.81c8.498,0.082,16.986,0.922,25.336,2.288
		c3.414-2.061,6.812-4.128,10.154-6.231C1110.73,558.387,1111.516,557.866,1112.294,557.341z"/>
	<path fill="#FFFFFF" d="M1022.917,616.487c-4.473,0.117-8.97,0.873-13.561,1.062c-2.715,0.163-5.431,0.303-8.145,0.346
		c0.127,2.012,0.269,4.013,0.37,6.042c0.723,0.013,1.445,0.027,2.167,0.027c3.487,0.028,7.011-0.226,10.575-0.105
		c1.718,0.057,3.427,0.177,5.131,0.3c0.672-0.881,1.358-1.759,2.065-2.632c1.474-1.801,3.016-3.5,4.599-5.131
		C1025.051,616.406,1023.983,616.431,1022.917,616.487z"/>
	<path fill="#FFFFFF" d="M1025.888,589.748c3.774,0.012,7.565,0.048,11.306-0.28c3.791-0.31,7.646-0.509,11.463-0.442
		c3.871,0.048,7.731,0.342,11.57,0.757c3.929-2.615,7.881-5.181,11.86-7.692c-4.945-0.388-9.888-0.604-14.842-0.456
		c-4.301,0.068-8.543,0.445-12.828,0.947c-4.339,0.534-8.678,0.61-13.016,0.715c-8.667,0.081-17.332-0.114-25.942-0.909
		c-2.637-0.283-5.273-0.561-7.907-0.856c0.008,0.462,0.029,0.929,0.032,1.39c0.131,0.812,0.429,2.706,0.81,5.507l4.794,0.179
		C1010.768,588.921,1018.322,589.592,1025.888,589.748z"/>
	<path fill="#FFFFFF" d="M1023.251,608.392c-2.793,0.32-5.588,0.482-8.382,0.605c-4.754,0.204-9.509,0.307-14.248,0.097
		c0.075,0.914,0.15,1.844,0.223,2.797c0.084,1.094,0.127,2.219,0.203,3.32c2.752,0.081,5.501,0.205,8.249,0.214
		c4.486,0.082,9.007-0.41,13.613-0.266c1.407,0.035,2.809,0.126,4.209,0.233c1.364-1.364,2.75-2.693,4.161-3.98
		c1.41-1.277,2.854-2.496,4.304-3.704c-1.362-0.008-2.724,0.01-4.087,0.073C1028.731,607.851,1026.004,608.074,1023.251,608.392z"/>
	<path fill="#FFFFFF" d="M1001.953,634.216c0.05,1.817,0.14,3.625,0.17,5.444c0,0.003,0,0.003,0,0.003
		c0.057,3.532,0.034,7.073,0.003,10.611c3.469-5.814,7.1-11.543,10.913-17.175L1001.953,634.216z"/>
	<path fill="#FFFFFF" d="M1065.83,572.915c-4.813,0.07-9.564,0.5-14.359,1.065c-4.852,0.594-9.707,0.656-14.557,0.739
		c-9.694,0.031-19.382-0.277-29.008-1.203c-3.609-0.399-7.217-0.793-10.818-1.229c0.195,2.366,0.338,4.716,0.415,7.047l8.152,0.406
		c8.597,0.445,17.168,1.227,25.756,1.433c4.284,0.029,8.589,0.084,12.833-0.307c4.297-0.372,8.667-0.625,12.995-0.558
		c5.289,0.06,10.561,0.53,15.794,1.182c4.143-2.605,8.299-5.179,12.466-7.716C1078.948,573.107,1072.396,572.744,1065.83,572.915z"
		/>
	<path fill="#221E1F" d="M1147.484,538.697c-6.938-1.775-14.21-3.319-21.489-3.972c-7.268-0.686-14.476-0.846-21.652-0.877
		c-14.35-0.049-28.614,0.555-42.884,1.071c-14.245,0.556-28.446,1.069-42.677,0.662c-7.106-0.228-14.214-0.591-21.288-1.333
		c-2.718-0.304-5.447-0.611-8.164-0.999c-1.221-4.051-2.561-8.126-4.018-12.222c0.676-0.663,1.4-1.283,2.168-1.842
		c1.768-1.27,3.705-2.33,5.759-3.095c-0.28,0.092-0.553,0.202-0.83,0.305c-1.781,0.66-3.488,1.524-5.08,2.574
		c-0.754,0.504-1.472,1.07-2.156,1.677c-4.202-11.761-9.339-23.682-15.2-35.635c1.053-0.333,2.108-0.662,3.17-0.967
		c5.058-1.546,10.225-2.732,15.442-3.828c-5.314,0.216-10.663,0.532-15.982,1.229c-1.377,0.156-2.751,0.339-4.123,0.541
		c-3.832-7.66-7.954-15.327-12.311-22.968c4.865-1.652,9.791-3.172,14.799-4.414c6.606-1.768,13.339-3.046,20.122-4.201
		c-6.863,0.273-13.762,0.678-20.619,1.593c-5.614,0.646-11.189,1.636-16.748,2.781c-4.634-7.961-9.511-15.884-14.571-23.733
		c1.081-0.387,2.156-0.786,3.243-1.155c7.901-2.643,15.917-5.091,24.096-6.924c8.151-1.988,16.445-3.358,24.791-4.572
		c-8.414,0.331-16.865,0.826-25.261,1.959c-8.423,0.977-16.768,2.589-25.084,4.431c-1.693,0.383-3.378,0.8-5.063,1.224
		c-4.86-7.397-9.867-14.72-14.976-21.933c3.131-1.156,6.277-2.275,9.457-3.306c9.415-3.004,18.959-5.771,28.686-7.791
		c9.696-2.208,19.55-3.67,29.455-4.942c-9.966,0.389-19.971,0.974-29.906,2.326c-9.966,1.163-19.837,3.093-29.664,5.294
		c-3.979,0.91-7.93,1.945-11.867,3.045c-4.505-6.255-9.072-12.42-13.669-18.475c5.27-1.993,10.601-3.85,15.99-5.538
		c10.928-3.365,22-6.451,33.275-8.658c5.608-1.285,11.297-2.104,16.973-3.082c5.684-0.924,11.418-1.473,17.143-2.23
		c-5.752,0.315-11.537,0.424-17.293,0.911c-5.75,0.541-11.535,0.926-17.26,1.782c-11.511,1.35-22.907,3.597-34.248,6.158
		c-6.34,1.464-12.627,3.171-18.873,5.047c-5.208-6.756-10.437-13.366-15.64-19.787c8.859-3.541,17.868-6.762,27.024-9.553
		c12.442-3.725,25.041-7.129,37.864-9.524c6.378-1.406,12.846-2.275,19.297-3.329c6.46-0.99,12.975-1.553,19.477-2.352
		c-6.528,0.357-13.091,0.48-19.623,1.032c-6.523,0.617-13.084,1.052-19.578,2.029c-13.056,1.536-25.978,4.101-38.831,7.021
		c-10.297,2.394-20.475,5.329-30.544,8.658c-4.403-5.359-8.773-10.578-13.081-15.638c5.283-2.974,10.761-5.659,16.305-8.214
		c11.865-5.407,24.202-9.877,36.752-13.735c6.31-1.811,12.622-3.671,19.049-5.102c6.378-1.656,12.858-2.842,19.333-4.116
		c6.47-1.312,13.03-2.079,19.556-3.148c6.554-0.827,13.138-1.465,19.721-2.208c-6.607,0.301-13.234,0.498-19.853,0.887
		c-6.593,0.631-13.238,0.962-19.818,1.843c-6.586,0.844-13.199,1.603-19.739,2.841c-6.585,1.012-13.086,2.461-19.611,3.872
		c-12.986,3.06-25.868,6.768-38.448,11.513c-6.28,2.398-12.521,4.95-18.611,7.92c-0.283,0.131-0.56,0.28-0.841,0.414
		c-4.532-5.239-8.971-10.282-13.284-15.111c1.646-0.858,3.296-1.706,4.94-2.537c7.168-3.532,14.426-6.938,21.839-10.006
		c14.794-6.198,29.933-11.71,45.39-16.241c15.469-4.446,31.122-8.487,47.039-11.256c7.917-1.647,15.94-2.618,23.943-3.824
		c8.012-1.123,16.087-1.712,24.145-2.596c-8.081,0.442-16.201,0.591-24.282,1.276c-8.071,0.768-16.187,1.304-24.219,2.522
		c-16.145,1.909-32.119,5.109-47.999,8.749c-15.869,3.725-31.51,8.465-46.917,13.952c-10.376,3.764-20.547,7.799-30.605,12.491
		c-2.589-2.853-5.126-5.628-7.591-8.297c-2.957-3.204-6.134-6.535-9.471-9.951c14.724-5.51,29.709-10.526,44.741-15.165
		c20.488-6.298,41.234-11.695,62.118-16.393c20.91-4.59,42.021-8.117,63.249-10.513c16.84-1.617,33.74-2.324,50.59-1.85
		c-1.85,1.241-3.65,2.631-5.334,4.327c-1.297,1.325-2.539,2.854-3.47,4.773c-0.934,1.887-1.484,4.278-1.166,6.615
		c0.297,2.344,1.346,4.358,2.532,5.967c0.077,0.109,0.162,0.2,0.242,0.305c-2.065,1.047-4.06,2.179-6.045,3.455
		c-3.367,2.225-6.674,4.727-9.405,8.211c-1.348,1.74-2.553,3.759-3.253,6.112c-0.711,2.336-0.794,5.014-0.138,7.408
		c0.625,2.41,1.83,4.507,3.224,6.218c0.481,0.629,0.998,1.199,1.525,1.748c-2.016,1.554-3.93,3.175-5.805,4.932
		c-2.835,2.681-5.516,5.615-7.723,9.104c-1.098,1.741-2.063,3.656-2.689,5.803c-0.627,2.13-0.88,4.559-0.38,6.945
		c0.478,2.391,1.71,4.554,3.2,6.243c0.649,0.763,1.36,1.405,2.094,1.994c-1.446,1.499-2.804,3.037-4.118,4.679
		c-2.02,2.546-3.882,5.276-5.325,8.379c-1.398,3.054-2.507,6.757-1.595,10.721c0.457,1.948,1.497,3.772,2.811,5.183
		c0.522,0.556,1.084,1.031,1.66,1.472c-1.061,1.172-2.032,2.388-2.952,3.713c-1.497,2.204-2.827,4.631-3.491,7.437
		c-0.694,2.771-0.569,5.963,0.649,8.71c0.784,1.975,2.099,3.477,3.521,4.803c-1.746,1.857-3.189,3.856-4.465,6.087
		c-1.642,2.941-2.784,6.342-2.795,9.897c-0.006,3.517,1.062,7.14,3.116,9.882l0.702,1.082l0.845,0.94l1.697,1.868
		c0.684,0.625,1.395,1.214,2.109,1.796c-1.923,1.887-3.547,3.947-4.948,6.264c-1.735,2.93-2.959,6.373-2.858,9.96
		c0.117,3.545,1.465,7.094,3.734,9.661c0.474,0.734,1.099,1.303,1.714,1.885l1.83,1.751l3.026,2.176
		c-1.369,2.079-2.486,4.221-3.46,6.475c-1.116,2.633-1.96,5.393-2.421,8.241c-0.409,2.858-0.362,5.794,0.231,8.637
		c0.539,2.655,1.788,5.073,3.253,7.301c-2.322,2.224-4.353,4.647-6.171,7.254c-1.905,2.792-3.565,5.773-4.695,8.97
		c-1.109,3.199-1.674,6.587-1.52,9.957c0.09,1.987,0.564,3.899,1.223,5.746c0.451,1.265,0.979,2.501,1.58,3.692
		c0.021,0.042,0.039,0.086,0.06,0.128c0,0,0,0,0,0c0,0,0,0,0,0c-0.007-0.015-0.012-0.031-0.019-0.046
		c-1.381-3.016-2.427-6.216-2.446-9.536c-0.017-3.313,0.668-6.588,1.87-9.659c1.224-3.068,2.958-5.908,4.92-8.552
		c1.974-2.627,4.198-5.132,6.641-7.263l0.25-0.487l-0.128-0.551c-1.432-2.259-2.646-4.672-3.098-7.31
		c-0.461-2.618-0.43-5.311,0.026-7.952c0.509-2.635,1.376-5.203,2.503-7.657c1.13-2.432,2.513-4.846,4.089-6.923
		c0.158-0.207,0.253-0.463,0.259-0.742l0.001-0.055v-0.017c0.006-0.344-0.147-0.692-0.44-0.917l-0.133-0.101l-3.681-2.816
		l-1.595-1.627c-0.538-0.536-1.09-1.061-1.463-1.704c-1.931-2.313-2.836-5.181-2.867-7.991c0.002-2.841,1.062-5.662,2.653-8.176
		c1.588-2.491,3.719-4.858,5.973-6.666c0.073-0.06,0.15-0.131,0.216-0.203c0.678-0.753,0.617-1.913-0.135-2.591l-0.118-0.106
		c-1.093-0.984-2.246-1.916-3.292-2.924l-1.396-1.64l-0.701-0.814l-0.534-0.902c-1.629-2.313-2.324-5.013-2.285-7.681
		c0.055-2.685,0.974-5.377,2.405-7.834c1.419-2.423,3.377-4.8,5.43-6.581c0.07-0.061,0.146-0.136,0.209-0.207
		c0.826-0.932,0.741-2.358-0.191-3.185l-0.12-0.107c-1.606-1.425-3.261-2.889-3.89-4.734c-0.731-1.783-0.808-3.748-0.287-5.749
		c0.499-2.004,1.594-3.978,2.895-5.812c1.292-1.814,2.913-3.616,4.515-5.027c0.21-0.188,0.407-0.428,0.549-0.689
		c0.663-1.224,0.21-2.753-1.014-3.417c-2.366-1.296-4.115-3.041-4.529-5.192c-0.482-2.148,0.171-4.789,1.395-7.277
		c1.217-2.505,2.9-4.916,4.775-7.186c1.861-2.254,3.988-4.474,6.107-6.37c0.189-0.171,0.369-0.379,0.51-0.606
		c0.839-1.332,0.438-3.091-0.894-3.929l-0.02-0.013c-2.802-1.763-4.979-4.049-5.397-6.598c-0.493-2.537,0.594-5.581,2.436-8.349
		c1.829-2.787,4.243-5.379,6.866-7.761c2.605-2.367,5.521-4.638,8.383-6.534c0.243-0.163,0.481-0.369,0.679-0.602
		c1.168-1.369,1.004-3.425-0.365-4.592l-0.031-0.027c-2.588-2.206-4.828-4.813-5.399-7.396c-0.653-2.513,0.236-5.157,2.246-7.693
		c1.975-2.519,4.802-4.71,7.776-6.633c2.974-1.903,6.319-3.62,9.508-4.931l0.05-0.02c0.516-0.214,0.988-0.557,1.363-1.022
		c1.203-1.489,0.972-3.672-0.517-4.875c-2.144-1.733-3.752-3.809-3.923-5.5c-0.247-1.618,0.792-3.687,2.733-5.597
		c1.898-1.898,4.349-3.584,6.946-5.046c2.577-1.454,5.438-2.787,8.13-3.801l0.082-0.03c1.256-0.476,2.189-1.646,2.294-3.075
		c0.144-1.963-1.331-3.672-3.295-3.815c-21.763-1.594-43.553-1.079-65.182,0.869c-21.583,2.301-43.007,5.753-64.194,10.27
		c-21.14,4.713-42.033,10.413-62.68,16.857c-16.209,5.113-32.237,10.607-48.113,16.75c-38.836-38.658-98.263-87.349-153.219-116.868
		c-58.666-31.51-106.028-46.501-165.989-65.478l-11.24-3.561c-65.54-20.799-100.444-20.483-120.999-18.437
		c-14.161,1.413-33.556-0.627-47.726-2.119c-5.519-0.58-10.286-1.079-13.633-1.253c-6.502-0.336-10.485,1.971-12.684,3.964
		c-4.473,4.06-4.85,9.571-4.876,10.185c-0.018,0.334-0.001,0.669,0.046,0.998c0.196,1.351,1.591,6.895,11.042,22.612
		c-0.2,14.666-5.788,31.709-9.539,41.531c-7.194-12.482-25.115-34.629-62.938-38.231c-0.243-0.018-0.492-0.023-0.741,0
		c-0.546,0.05-11.888,1.18-17.251,8.65c-0.584,0.221-1.145,0.509-1.63,0.936c-1.261,1.107-7.255,7.386-1.464,22.443
		c3.376,8.776,22.893,54.796,30.875,62.997c5.495,5.645,13.611,24.274,15.214,30.123c1.685,6.142,6.192,13.564,10.962,21.421
		l0.814,1.341c4.609,7.602,15.224,27.215,19.885,37.696c4.622,10.39,81.098,131.114,120.221,145.254
		c2.192,5.651,8.289,19.578,20.621,36.127c5.119,6.87,19.073,29.691,36.367,63.45c-21.104,27.346-57.15,85.312-57.155,162.317
		c0.001,0.141,0.008,0.282,0.024,0.424c0.076,0.706,0.882,6.94,5.843,8.489c0.497,0.156,0.991,0.25,1.482,0.291
		c5.069,0.426,9.601-4.829,11.184-6.666c2.816-3.266,4.658-6.199,6.437-9.039c0.831-1.324,1.683-2.68,2.667-4.117
		c0.42-0.386,0.756-0.859,0.98-1.394c3.412-4.719,8.534-10.436,19.014-18.833c0.745-0.293,1.369-0.796,1.813-1.438
		c4.577-3.591,10.101-7.655,16.829-12.31c0.12-0.083,0.233-0.161,0.353-0.244c0.878-0.251,1.622-0.77,2.132-1.471
		c6.735-4.642,12.595-8.608,17.665-11.978c0.186-0.039,0.372-0.075,0.556-0.143c0.809-0.297,1.457-0.831,1.909-1.491
		c4.484-2.961,8.302-5.423,11.549-7.474c8.546,21.209,16.916,43.827,24.638,67.425c-28.982,44.963-59.953,88.87-80.987,112.755
		c-11.315-5.21-18.921-6.541-24.281-4.414c-5.83,2.315-7.539,7.979-8.91,12.529c-0.367,1.213-0.717,2.378-1.119,3.437
		c-0.299,0.066-0.633,0.132-0.916,0.188c-2.932,0.589-8.389,1.686-10.018,6.953c-1.125,3.637-0.617,9.013,7.51,20.331
		c-24.177,22.027-62.366,43.939-178.357,74.908c-98.258,26.237-141.179,26.674-159.51,26.859
		c-13.437,0.138-18.465,0.189-19.933,12.539c-0.308,2.584,0.202,6.446,4.378,10.169c7.363,6.567,24.371,10.787,46.727,12.666
		c40.266,3.383,97.878-0.838,147.709-12.663c112.517-26.703,198.935-42.121,226.58-40.82c3.964,6.856,7.399,13.993,10.114,21.426
		c-0.39,0.911-0.61,1.751-0.745,2.277c-0.65,2.548-1.634,6.399-9.587,11.25c-12.468,7.604-14.414,11.516-14.659,14.61
		c-0.153,1.928,0.549,3.785,1.885,5.009c6.052,5.633,14.037,8.903,23.733,9.717c1.523,0.128,3.005,0.183,4.429,0.19
		c-1.518,2.158-4.146,4.819-9.6,7.874c-9.858,5.521-18.614,11.498-15.951,17.794c0.265,0.626,0.647,1.195,1.126,1.677
		c7.996,8.036,19.812,10.574,28.317,11.289c1.87,0.157,3.781,0.226,5.65,0.234c-1.836,1.985-4.629,4.407-9.39,7.266
		c-14.966,8.986-17.15,13.136-17.314,16.009c-0.089,1.562,0.516,3.083,1.652,4.158c8.67,8.202,22.849,10.509,30.529,11.155
		c1.772,0.149,3.547,0.236,5.26,0.268c-1.711,2.625-4.333,6.155-9.168,10.984c-5.807,5.799-10.044,10.559-12.596,14.147
		c-1.47,2.067-1.9,4.645-1.184,7.073c0.72,2.435,2.49,4.371,4.858,5.311c3.904,1.551,8.6,2.565,13.957,3.015
		c13.493,1.134,27.729-1.507,33.575-3.741c0.821,1.132,1.997,2.335,3.7,3.469c3.739,2.484,9.162,4.017,16.213,4.609
		c25.374,2.132,71.823-7.932,136.603-29.746c82.365-27.734,151.981-108.928,195.874-172.16
		c54.215-78.096,88.126-154.995,97.696-187.63c6.221-21.234,10.01-45.461,11.261-72.016c0.001-0.013,0.005-0.026,0.005-0.039
		c0.001-0.034,0.001-0.068,0.003-0.102c5.627-10.064,11.592-19.921,18.102-29.351c2.53-3.589,5.113-7.22,7.84-10.546
		c2.66-3.212,5.716-6.237,8.934-9.141c3.571-3.214,7.358-6.255,11.245-9.202c0.1,0.003,0.201,0.008,0.301,0.011
		c0.069,0.002,0.129-0.05,0.135-0.12c0.007-0.068-0.046-0.121-0.111-0.134c3.036-2.294,6.125-4.539,9.245-6.738
		c0.652-0.46,1.327-0.892,1.982-1.348c0.126,0.008,0.25,0.017,0.375,0.025c0.069,0.004,0.13-0.046,0.139-0.116
		c0.009-0.072-0.043-0.138-0.115-0.146l-0.031-0.004c-0.004,0-0.008-0.001-0.012-0.002c13.808-9.574,28.288-18.301,42.709-27.26
		c3.811-2.371,7.621-4.774,11.423-7.247c3.781-2.42,7.746-5.553,10.987-8.003c6.902-4.997,14.834-9.132,22.744-11.893l0.171-0.059
		c1.011-0.361,1.831-1.203,2.117-2.322C1150.353,540.976,1149.273,539.154,1147.484,538.697z M1047.954,598.216
		c-2.619-0.242-5.245-0.435-7.88-0.474c-3.304-0.067-6.645,0.079-9.93,0.328c-3.24,0.254-6.515,0.254-9.782,0.243
		c-6.546-0.099-13.083-0.666-19.643-0.844l-1.221-0.025c-0.274-2.491-0.541-4.711-0.787-6.624c1.435,0.145,2.869,0.288,4.305,0.436
		c7.592,0.663,15.234,0.746,22.874,0.615c3.823-0.121,7.648-0.218,11.472-0.686c3.774-0.441,7.51-0.765,11.299-0.832
		c3.492-0.119,6.978-0.024,10.466,0.169c-2.074,1.389-4.161,2.752-6.216,4.178C1051.255,595.863,1049.602,597.034,1047.954,598.216z
		 M507.23,1118.423c-4.476-0.376-8.776-1.203-12.443-2.659c-1.755-0.697-2.4-2.833-1.307-4.372
		c1.736-2.441,5.189-6.644,12.021-13.467c7.39-7.38,10.041-12.069,11.774-14.924c0.701-0.061,1.377-0.13,1.989-0.219
		c2.065-0.3,3.916-1.171,5.408-2.415c2.976,3.426,11.199,13.561,17.494,27.669c1.185,2.654-0.663,5.748-3.353,6.847
		C533.646,1116.998,519.754,1119.476,507.23,1118.423z M493.523,1056.147c9.008-5.409,11.917-9.667,13.739-12.21
		c2.024-0.298,3.848-1.148,5.328-2.391c0.046,0.01,0.078,0.01,0.125,0.021c0,0,8.217,12.216,10.381,30.502
		c0.316,2.67-1.902,5.07-4.593,5.46c-2.704,0.392-7.229,0.531-12.4,0.096c-9.281-0.78-20.647-3.404-27.324-9.72
		C478.778,1067.905,478.948,1064.898,493.523,1056.147z M494.975,1038.803c-8.377-0.704-18.475-3.188-24.997-9.743
		c0,0-1.179-2.786,13.655-11.093c9.429-5.281,11.879-9.968,13.322-12.798c1.335-0.128,2.553-0.28,3.58-0.437
		c0.738-0.112,1.441-0.316,2.118-0.57c2.34,3.745,7.927,14.185,8.423,29.251c0.089,2.688-2.054,5.01-4.756,5.319
		C503.635,1039.04,499.562,1039.189,494.975,1038.803z M486.653,999.979c-6.883-0.578-14.556-2.711-20.585-8.336
		c0,0-2.659-2.268,11.946-11.176c15.822-9.65,9.671-17.718,14.614-17.303c0.301,0.025,0.643,0.082,1.033,0.172
		c0,0,10.224,10.519,10.658,30.621c0.059,2.736-1.879,5.115-4.584,5.526C496.49,999.977,491.79,1000.411,486.653,999.979z
		 M267.473,967.583c-17.282,3.621-34.624,6.963-52.016,10.017c-17.385,3.085-34.838,5.804-52.353,8.051
		c-17.512,2.229-35.086,4.112-52.729,4.942c-1.637,0.076-3.275,0.137-4.914,0.198c-0.926-0.067-1.863-0.129-2.77-0.202
		c2.557-0.098,5.112-0.211,7.665-0.346c17.625-0.946,35.172-2.944,52.656-5.287c17.486-2.361,34.908-5.192,52.26-8.391
		c17.359-3.167,34.665-6.62,51.911-10.353c34.506-7.398,68.81-15.73,102.968-24.591c31.377-8.194,62.651-16.839,93.723-26.08
		c0.631,0.77,1.253,1.543,1.875,2.316c-31.547,9.172-63.248,17.712-95.074,25.799C336.433,952.298,302.053,960.408,267.473,967.583z
		 M180.631,954.398c13.039-1.216,25.989-3.224,38.882-5.478c25.788-4.553,51.309-10.509,76.662-17.043
		c25.356-6.537,50.529-13.773,75.577-21.4c22.917-7.02,45.745-14.375,68.398-22.166c0.645,0.737,1.304,1.485,1.968,2.236
		c-23.132,7.742-46.391,15.011-69.761,21.943c-25.14,7.412-50.4,14.428-75.838,20.746c-25.435,6.314-51.034,12.048-76.887,16.376
		c-12.926,2.14-25.906,4.035-38.969,5.136c-11.697,0.978-23.477,1.493-35.194,0.691c0.05-0.009,0.098-0.017,0.148-0.026
		C157.289,956.095,169.003,955.474,180.631,954.398z M488.972,799.791c8.389-14.569,16.516-29.294,24.179-44.26
		c7.651-14.967,14.913-30.151,21.19-45.749c2.734-6.794,5.273-13.673,7.449-20.668c0.261-0.416,0.52-0.831,0.781-1.246
		c-2.164,7.508-4.763,14.885-7.579,22.171c-6.072,15.714-13.135,31.025-20.591,46.123c-7.467,15.097-15.402,29.958-23.603,44.668
		c-6.947,12.401-14.079,24.686-21.46,36.846c-0.723-0.578-1.431-1.133-2.128-1.673C474.676,824.072,481.92,811.98,488.972,799.791z
		 M409.875,706.592c-0.163-0.375-0.317-0.896-0.391-1.344c0.085-71.945,32.608-126.718,53.18-154.18
		c1.231,2.452,2.472,4.937,3.729,7.49l-1.738,2.653l-2.513,3.837l-2.283,3.975l-4.549,7.975l-4.105,8.216l-2.039,4.122l-1.84,4.212
		c-1.207,2.817-2.499,5.605-3.638,8.453c-2.192,5.727-4.459,11.442-6.311,17.3c-3.869,11.659-7.114,23.55-9.603,35.615
		c-2.402,11.671-4.223,23.33-5.163,35.43c-1.055,1.546-1.975,3.008-2.871,4.437c-1.698,2.707-3.299,5.265-5.72,8.072
		C411.875,705.339,410.525,706.259,409.875,706.592z M479.214,612.065c0.17,5.368,0.583,10.739,1.243,16.09
		c0.555,4.382,1.227,8.679,2.13,13.071c-3.738,2.489-7.893,5.295-12.458,8.417c-0.539-4.862-0.885-9.842-1.058-14.761
		c-0.24-7.169-0.09-14.364,0.425-21.544c0.469-7.189,1.467-14.342,2.857-21.433c0.854-4.652,2.076-9.22,3.463-13.751
		c1.614,3.439,3.242,6.956,4.877,10.529c-0.421,2.419-0.762,4.857-0.995,7.311C479.241,601.319,479.042,606.696,479.214,612.065z
		 M451.674,643.107c0.594-9.198,1.809-18.372,3.57-27.451c0.784-4.566,1.975-9.036,3.02-13.557c1.33-4.43,2.419-8.961,4.039-13.312
		c2.298-7.21,5.32-14.152,8.579-21.003c1.5,3.115,3.011,6.276,4.536,9.517c-1.905,4.61-3.646,9.302-4.997,14.124
		c-2.056,7.021-3.733,14.184-4.878,21.441c-1.191,7.25-2.018,14.576-2.445,21.94c-0.359,6.573-0.459,13.064-0.144,19.773
		c-4.363,3.024-8.231,5.809-11.69,8.395C451.066,656.418,451.232,649.705,451.674,643.107z M430.991,680.195
		c0.548-8.065,1.453-16.203,2.662-24.224c1.796-11.962,4.349-23.823,7.536-35.519c1.511-5.878,3.439-11.626,5.299-17.409
		c0.971-2.875,2.098-5.694,3.14-8.548l1.594-4.271l1.797-4.187l3.629-8.372l4.086-8.163l2.057-4.082l2.292-3.952l1.484-2.559
		c1.36,2.761,2.736,5.596,4.121,8.469c-3.793,6.688-7.382,13.529-10.246,20.705c-1.948,4.28-3.369,8.757-5.037,13.158
		c-1.381,4.488-2.914,8.95-4.04,13.523c-2.446,9.096-4.351,18.359-5.632,27.729c-1.191,8.696-1.941,17.325-1.993,26.305
		C438.264,673.206,434.176,676.932,430.991,680.195z M486.33,627.055c-1.28-5.055-2.331-10.178-3.149-15.348
		c-1.056-6.869-1.636-13.844-1.483-20.837c5.693,12.509,11.478,25.82,17.214,39.77c-2.805,1.758-6.044,3.83-9.762,6.258
		C488.118,633.671,487.171,630.352,486.33,627.055z M430.822,473.402c-7.808-10.477-12.936-19.85-16.053-26.377
		c2.247,0.392,4.493,0.747,6.774,1.06c5.76,0.784,11.56,1.259,17.377,1.442c11.623,0.319,23.392-0.563,34.803-3.548
		c5.696-1.487,11.288-3.499,16.599-6.144c5.363-2.697,10.117-5.84,14.857-9.19c9.399-6.713,17.967-14.412,25.848-22.705
		c15.709-16.626,28.78-35.646,38.399-56.26c8.856-19.018,14.737-39.551,16.006-60.413c24.349,9.192,40.478,23.027,58.237,44.63
		c19.079,23.208,29.798,51.409,55.801,70.259c22.297,16.163,51.842,25.36,72.446,46.174c18.1,18.285,23.913,46.467,25.975,71.476
		c1.952,23.681-1.398,47.293,6.303,69.488c8.069,23.259,27.571,39.467,35.171,62.46c7.227,21.866-2.533,41.458-6.506,63.102
		c-1.99,10.848,2.807,19.371,1.416,31.058c-1.697,14.257-5.51,22.76-12.989,38.214c-11.527,23.822-20.684,50.653-36.89,75.606
		c-15.772,24.285-64.143,48.687-88.846,65.07c-1.23-3.653-2.77-7.799-4.687-12.508c-1.395-3.425-4.55-5.744-8.237-6.054c0,0,0,0,0,0
		c-2.347-0.197-4.689,0.465-6.593,1.864c-17.704,13.01-26.526,21.638-30.986,27.34c-2.361-0.186-4.764-0.385-7.226-0.599
		c-0.224-5.553-1.224-13.301-3.539-24.256c-0.956-4.524-4.694-7.824-9.3-8.211c-1.126-0.095-2.258-0.005-3.362,0.265
		c-3.991,0.977-8.857,1.969-14.009,3.019c-12.778,2.605-24.102,4.917-31.497,8.251c-0.344-38.172-5.089-76.903-12.688-114.793
		c32.215-77.362,85.015-211.113,75.344-265.253c-3.955-22.139-6.796-28.617-12.096-28.987c-6.465-0.41-9.14,8.136-16.288,30.973
		c-6.692,21.369-15.857,50.638-30.755,77.697c-12.422,22.563-28.541,49.476-45.747,76.589
		C495.113,579.035,442.048,488.467,430.822,473.402z M269.844,253.817c-4.375-7.203-8.508-14.011-9.798-18.716
		c-1.607-5.862-10.239-26.905-17.845-34.723c-5.363-5.506-23.029-44.991-28.576-59.403c-1.016-2.643-1.491-4.726-1.671-6.333
		c0.119,0.041,0.237,0.085,0.359,0.126c2.253,0.801,5.475,1.943,10.091,3.728c15.403,5.946,40.138,20.451,58.045,38.244
		c17.307,17.193,16.399,40.232,16.389,40.447c-0.153,2.81,1.911,5.25,4.705,5.565c2.722,0.328,5.351-1.601,5.829-4.373
		c1.47-8.517,5.938-30.669,10.385-44.785c5.003-15.883,1.714-48.176-10.177-67.614c-7.924-12.957-10.138-18.594-10.675-20.164
		c0.154-0.593,0.515-1.575,1.298-2.286c1.025-0.93,2.707-1.341,4.999-1.223c3.065,0.159,7.699,0.646,13.069,1.21
		c2.225,0.234,4.585,0.48,7.024,0.725c3.609,2.041,6.065,3.549,9.932,5.452c10.937,5.383,21.494,12.62,33.821,14.891
		c12.327,2.271,24.415-4.717,34.849,5.192c16.088,15.28,17.758,37.096,30.184,54.243c8.011,11.054,15.735,12.771,26.855,17.074
		c9.677,3.745,17.938,11.504,24.665,19.281c14.522,16.787,28.322,33.687,41.483,51.127c14.336,18.997,28.521,29.683,51.164,36.617
		c3.132,0.959,6.106,1.993,8.991,3.077c-2.072,20.787-8.713,40.895-18.18,59.324c-10.27,19.951-23.856,38.123-39.787,53.718
		c-7.984,7.774-16.585,14.906-25.82,20.97c-4.591,2.992-9.421,5.9-14.252,8.078c-4.894,2.198-10.053,3.829-15.332,4.985
		c-10.57,2.325-21.584,2.73-32.497,1.993c-5.46-0.39-10.913-1.054-16.311-2.009c-4.776-0.838-9.665-1.918-14.186-3.199
		c-0.569-0.416-1.197-0.755-1.904-0.92c-31.407-7.307-109.845-126.694-115.803-140.084c-4.817-10.833-15.762-31.059-20.508-38.889
		L269.844,253.817z M1018.661,537.924c14.269,1.04,28.615,1.361,42.891,1.261c14.253-0.063,28.52-0.061,42.698,0.314
		c7.086,0.204,14.15,0.542,21.07,1.369c3.516,0.405,6.971,1.018,10.415,1.772c-3.826,1.761-7.499,3.775-11.068,6.021
		c-10.888-2.085-21.976-3.132-33.087-3.243c-6.381-0.057-12.803,0.42-19.128,1.037c-6.268,0.627-12.63,0.515-18.958,0.395
		c-12.681-0.409-25.331-1.639-38-2.612l-19.018-1.509c-1.534-0.101-3.061-0.22-4.588-0.34c-0.701-2.729-1.467-5.473-2.286-8.228
		c2.565,0.525,5.148,0.974,7.721,1.407C1004.4,536.652,1011.526,537.356,1018.661,537.924z M1019.454,624.158
		c-1.705-0.123-3.414-0.243-5.131-0.3c-3.564-0.121-7.089,0.133-10.575,0.105c-0.722,0-1.444-0.013-2.167-0.027
		c-0.101-2.029-0.242-4.03-0.37-6.042c2.713-0.043,5.429-0.183,8.145-0.346c4.59-0.189,9.087-0.945,13.561-1.062
		c1.067-0.057,2.134-0.081,3.202-0.092c-1.584,1.631-3.125,3.33-4.599,5.131C1020.812,622.399,1020.126,623.277,1019.454,624.158z
		 M1013.231,632.81c-3.775-0.185-7.552-0.274-11.331-0.309c-0.066-2.08-0.101-4.166-0.194-6.237c0.71-0.06,1.419-0.12,2.129-0.178
		c3.547-0.241,7.029-0.758,10.504-0.9c1.49-0.101,2.989-0.145,4.488-0.189c-1.877,2.498-3.657,5.025-5.439,7.578
		C1013.334,632.652,1013.284,632.731,1013.231,632.81z M556.756,668.094c0.459-1.784,0.878-3.58,1.293-5.377
		c0.155-0.255,0.312-0.514,0.466-0.768c-0.446,2.085-0.914,4.164-1.42,6.232c-2.301,9.362-5.24,18.554-8.444,27.642
		c-6.409,18.182-13.966,35.938-21.979,53.464c-8.026,17.525-16.595,34.796-25.474,51.903c-7.638,14.645-15.501,29.161-23.66,43.534
		c-0.304-0.279-0.619-0.572-0.919-0.846c-0.38-0.346-0.752-0.667-1.129-1.003c8.203-14.066,16.14-28.312,23.85-42.666
		c9.072-16.972,17.837-34.113,26.063-51.513c8.212-17.401,15.972-35.036,22.589-53.109
		C551.301,686.553,554.346,677.412,556.756,668.094z M602.761,575.393c0.002-0.005,0.004-0.011,0.007-0.016
		c0.439,13.089-1.278,26.152-3.654,39.004c-2.443,13.099-5.78,26.014-9.49,38.804c-7.421,25.592-16.461,50.686-26.148,75.497
		c-9.705,24.811-20.18,49.316-31.095,73.617c-9.893,21.909-20.139,43.647-30.86,65.18c-0.694-0.66-1.382-1.314-2.067-1.967
		c10.747-21.146,21.059-42.541,31.015-64.084c11.115-24.179,21.793-48.564,31.704-73.263c9.894-24.699,19.142-49.684,26.778-75.179
		c3.819-12.742,7.264-25.612,9.818-38.673C601.255,601.504,603.085,588.479,602.761,575.393z M641.931,944.116
		c-0.139,0.262-0.263,0.51-0.378,0.75c-1.265-0.141-2.527-0.309-3.79-0.458c0.013-0.167,0.023-0.341,0.034-0.515
		C639.174,943.969,640.553,944.044,641.931,944.116z M950.494,798.223c-0.619-0.052-1.18-0.281-1.666-0.71
		c-7.046-6.224-0.608-22.242,3.511-26.754c2.961-3.243,11.268-9.995,13.457-9.854c0.015,0.001,0.029,0.002,0.044,0.003
		c0.913,0.077,2.111,0.72,2.436,1.564C973.077,774.923,957.773,798.835,950.494,798.223z M828.004,913.239
		c-1.723-0.145-3.357-0.589-4.848-1.397c-9.683-5.243,16.436-35.181,24.704-44.272c0.528-0.581,1.249-0.824,1.941-0.766
		c0.818,0.069,1.596,0.559,1.968,1.409c2.718,6.21,7.996,19.69,5.76,26.139C854.953,901.779,839.512,914.206,828.004,913.239z
		 M776.397,937.1c-0.297-0.025-0.588-0.057-0.878-0.096c-10.813-1.469-1.731-12.765-1.731-12.765l24.298-30.554
		c0.661-0.831,1.607-1.167,2.511-1.091c1.223,0.103,2.369,0.961,2.623,2.375c1.434,7.976,3.415,21.426,1.619,26.832
		C802.282,929.5,787.172,938.005,776.397,937.1z M753.87,941.438c-2.045,3.941-22.048,13.774-35.59,12.636
		c-2.141-0.18-4.12-0.634-5.842-1.429c-10.495-4.846,20.344-33.757,30.991-43.326c0.721-0.648,1.616-0.908,2.473-0.836
		c1.263,0.106,2.443,0.932,2.863,2.298C751.448,919.486,755.662,937.984,753.87,941.438z M705.126,947.269
		c-1.155,0.089-2.31,0.184-3.465,0.261c-0.559,0.02-1.117,0.039-1.676,0.059c-0.076-1.01-0.206-2.137-0.403-3.396
		c2.245-0.185,4.487-0.395,6.724-0.641C705.664,945.04,705.31,946.261,705.126,947.269z M759.476,936.635
		c-0.075-1.535-0.245-3.19-0.478-4.901c2.08-0.676,4.153-1.372,6.223-2.085c-0.368,1.674-0.454,3.44-0.01,5.184
		C763.304,935.448,761.393,936.048,759.476,936.635z M810.775,912.181c1.329-0.552,2.667-1.092,3.993-1.649
		c0.389-0.164,0.772-0.341,1.161-0.507c0.352,1.843,1.181,3.456,2.406,4.733c-0.502,0.218-0.999,0.449-1.504,0.664
		c-2.001,0.827-4.007,1.632-6.01,2.447C810.897,916.373,810.898,914.503,810.775,912.181z M906.283,851.257
		c-0.267-1.38-0.617-2.849-1.017-4.332c0.795-0.811,1.59-1.622,2.378-2.441c0.072,0.152,0.144,0.297,0.212,0.431
		c0.497,0.983,1.209,1.772,2.041,2.4C908.7,848.636,907.503,849.957,906.283,851.257z M876.529,881.408
		c-1.558-0.131-3.078-0.68-4.525-1.746c-4.176-3.077,11.161-25.894,16.414-36.374c1.899-3.789,5.493-5.105,7.409-4.944
		c0.642,0.054,1.096,0.274,1.234,0.622c2.36,5.951,4.676,14.301,4.432,17.203C901.071,861.188,887.853,882.359,876.529,881.408z
		 M863.28,889.138c-0.09-1.702-0.308-3.528-0.72-5.535c1.294-0.919,2.585-1.844,3.864-2.785c0.459,1.209,1.247,2.246,2.429,3.117
		c0.256,0.189,0.527,0.336,0.79,0.506C867.545,886.038,865.425,887.604,863.28,889.138z M944.604,800.792
		c-1.092,1.799-2.157,3.613-3.287,5.39c-0.219-0.469-0.455-0.962-0.704-1.476c1.107-1.564,2.167-3.164,3.248-4.747
		C944.097,800.247,944.344,800.525,944.604,800.792z M916.052,843.091c-0.815,0.286-1.483,0.398-2.018,0.353
		c-7.406-0.622,10.817-31.24,16.571-40.605c0.389-0.633,1.06-0.916,1.706-0.862c0.589,0.049,1.156,0.379,1.469,0.979
		c2.094,4.011,5.581,11.064,5.056,12.604C938.092,817.742,935.489,836.255,916.052,843.091z M692.086,955.674
		c-5.484,1.971-18.401,3.483-29.33,2.565c-7.409-0.622-13.903-2.361-16.554-5.829c-5.242-6.861,21.874-27.865,32.978-36.024
		c0.914-0.672,1.98-0.938,3.005-0.852c1.598,0.134,3.095,1.125,3.763,2.764C690.34,929.089,699.196,953.118,692.086,955.674z
		 M630.356,531.362c0.988,15.777-0.721,31.587-3.232,47.155c-2.538,15.591-6.14,30.988-10.188,46.248
		c-8.098,30.534-18.127,60.521-28.931,90.192c-10.826,29.671-22.572,58.998-34.844,88.098
		c-11.325,26.699-23.083,53.201-35.437,79.458c-0.711-0.641-1.42-1.281-2.125-1.92c12.391-25.867,24.229-52.029,35.629-78.363
		c12.476-28.981,24.428-58.195,35.463-87.758c11.013-29.563,21.253-59.446,29.568-89.888c4.157-15.215,7.87-30.57,10.52-46.125
		C629.401,562.925,631.226,547.146,630.356,531.362z M630.611,949.506c-1.256,1.062-4.699,1.327-9.324,0.939
		c-16.113-1.354-46.561-10.652-48.74-21.888c-0.218-1.127,0.308-2.182,1.388-3.18c-1.057-0.841-2.09-1.716-3.096-2.628
		c1.504,0.503,2.957,1.06,4.426,1.599c8.279-5.414,33.227-9.023,47.62-12.545c0.557-0.137,1.115-0.177,1.655-0.131
		c2.177,0.183,4.072,1.755,4.55,4.017C631.162,925.498,634.861,945.913,630.611,949.506z M535.458,890.902
		c-1.391-4.762-1.781-15.679,7.568-39.003c2.107-5.256,5.389-13.043,9.545-22.901c1.094-2.595,2.249-5.336,3.447-8.183
		c5.425,30.612,8.848,61.646,9.424,92.354C554.95,906.406,544.928,898.792,535.458,890.902z M616.555,553.02
		c0.757,14.55-0.971,29.104-3.436,43.429c-2.49,14.345-5.96,28.501-9.84,42.526c-7.759,28.063-17.293,55.603-27.539,82.844
		c-10.266,27.241-21.376,54.157-32.969,80.858c-10.621,24.326-21.637,48.468-33.189,72.384c-0.702-0.653-1.401-1.303-2.094-1.952
		c11.582-23.524,22.67-47.321,33.359-71.279c11.796-26.58,23.111-53.38,33.584-80.51c10.453-27.131,20.198-54.565,28.173-82.534
		c3.988-13.978,7.567-28.091,10.169-42.399C615.351,582.098,617.195,567.576,616.555,553.02z M585.108,632.314
		c-2.396,11.853-5.6,23.527-9.141,35.083c-7.083,23.122-15.629,45.769-24.757,68.152c-9.145,22.382-18.984,44.475-29.221,66.378
		c-9.146,19.47-18.602,38.781-28.472,57.909c-0.691-0.662-1.367-1.309-2.046-1.96c9.895-18.755,19.413-37.734,28.62-56.85
		c10.434-21.777,20.475-43.748,29.825-66.014c9.334-22.267,18.085-44.802,25.382-67.824c3.649-11.506,6.961-23.133,9.468-34.946
		c1.592-7.565,2.93-15.216,3.643-22.922c0.05-0.1,0.098-0.201,0.147-0.302C587.924,616.842,586.651,624.622,585.108,632.314z
		 M571.101,650.247c-2.348,10.607-5.419,21.04-8.791,31.362c-6.746,20.652-14.797,40.853-23.368,60.807
		c-8.586,19.953-17.789,39.635-27.347,59.14c-8.389,17.035-17.045,33.927-26.055,50.656c-0.684-0.65-1.364-1.295-2.034-1.928
		c9.038-16.38,17.758-32.961,26.209-49.664c9.753-19.375,19.156-38.931,27.944-58.764c8.774-19.834,17.029-39.92,23.986-60.467
		c3.479-10.269,6.658-20.654,9.115-31.219c1.038-4.491,1.966-9.019,2.708-13.576c0.091-0.16,0.183-0.319,0.275-0.479
		C573.039,640.856,572.129,645.572,571.101,650.247z M450.158,899.599c-25.991,8.238-52.12,15.947-78.366,23.279
		c-28.173,7.821-56.473,15.202-84.958,21.804c-28.48,6.599-57.134,12.551-86.046,16.94c-14.456,2.17-28.966,4.061-43.555,5.072
		c-14.574,0.999-29.254,1.372-43.793-0.237c14.551,1.493,29.214,1.002,43.767-0.112c14.566-1.126,29.049-3.131,43.473-5.415
		c28.849-4.615,57.429-10.791,85.832-17.61c28.407-6.824,56.623-14.425,84.709-22.463c25.772-7.422,51.448-15.219,76.94-23.506
		C448.822,898.095,449.489,898.845,450.158,899.599z M85.471,977.798c16.039,1.854,32.231,1.517,48.31,0.495
		c16.095-1.036,32.11-3.038,48.064-5.351c31.911-4.676,63.55-11.071,95.002-18.177c31.457-7.111,62.717-15.077,93.84-23.527
		c28.617-7.82,57.134-16.053,85.457-24.832c0.655,0.755,1.31,1.516,1.964,2.277c-28.821,8.723-57.788,16.861-86.876,24.584
		c-31.208,8.231-62.548,15.976-94.079,22.865c-31.528,6.883-63.236,13.054-95.208,17.503c-15.984,2.199-32.026,4.086-48.141,5.007
		C117.706,979.549,101.496,979.768,85.471,977.798z M997.586,582.922c-0.003-0.461-0.025-0.927-0.032-1.39
		c2.634,0.295,5.269,0.573,7.907,0.856c8.61,0.795,17.275,0.99,25.942,0.909c4.337-0.105,8.676-0.181,13.016-0.715
		c4.285-0.503,8.526-0.88,12.828-0.947c4.954-0.147,9.897,0.068,14.842,0.456c-3.979,2.511-7.931,5.078-11.86,7.692
		c-3.839-0.415-7.699-0.71-11.57-0.757c-3.817-0.068-7.672,0.131-11.463,0.442c-3.741,0.328-7.532,0.292-11.306,0.28
		c-7.566-0.156-15.119-0.827-22.698-1.14l-4.794-0.179C998.014,585.628,997.717,583.734,997.586,582.922z M1057.239,580.308
		c-4.328-0.067-8.698,0.186-12.995,0.558c-4.244,0.392-8.549,0.336-12.833,0.307c-8.588-0.206-17.158-0.988-25.756-1.433
		l-8.152-0.406c-0.077-2.331-0.22-4.681-0.415-7.047c3.601,0.436,7.209,0.83,10.818,1.229c9.627,0.926,19.314,1.235,29.008,1.203
		c4.849-0.083,9.704-0.145,14.557-0.739c4.795-0.565,9.546-0.995,14.359-1.065c6.566-0.171,13.118,0.193,19.669,0.859
		c-4.167,2.538-8.324,5.111-12.466,7.716C1067.799,580.838,1062.528,580.367,1057.239,580.308z M1065.823,571.587
		c-4.842-0.065-9.725,0.243-14.528,0.676c-4.749,0.451-9.567,0.382-14.363,0.332c-9.61-0.255-19.2-1.15-28.815-1.726l-11.21-0.669
		c-0.232-2.401-0.529-4.821-0.876-7.254c4.766,0.623,9.546,1.138,14.326,1.677c10.644,1.053,21.354,1.474,32.073,1.498
		c5.364-0.057,10.731-0.102,16.1-0.747c5.308-0.628,10.563-1.126,15.89-1.199c8.242-0.193,16.471,0.321,24.681,1.357
		c-0.192,0.115-0.378,0.234-0.57,0.349c-4.068,2.454-8.143,4.914-12.215,7.389C1079.542,572.304,1072.689,571.66,1065.823,571.587z
		 M1074.41,562.848c-5.356-0.062-10.752,0.315-16.06,0.81c-5.254,0.501-10.587,0.415-15.894,0.339
		c-10.633-0.31-21.243-1.316-31.877-2.02l-14.834-0.996c-0.382-2.47-0.828-4.956-1.322-7.454l0.931,0.131
		c5.801,0.805,11.626,1.427,17.449,2.094c11.662,1.188,23.394,1.721,35.139,1.795c5.875-0.035,11.76-0.067,17.64-0.775
		c5.817-0.688,11.582-1.237,17.422-1.312c9.784-0.199,19.564,0.45,29.289,1.881c-0.778,0.525-1.564,1.046-2.393,1.564
		c-3.342,2.103-6.74,4.17-10.154,6.231C1091.396,563.77,1082.908,562.93,1074.41,562.848z M548.968,1113.755
		c-0.212-0.887-0.666-1.71-1.28-2.388c0.311-1.87,0.099-3.763-0.673-5.493c-7.322-16.411-17.043-27.592-19.19-29.956
		c0.514-1.403,0.727-2.922,0.543-4.474c-2.288-19.338-10.883-32.299-11.248-32.842c-0.377-0.561-0.856-1.038-1.404-1.414
		c0.469-1.235,0.711-2.568,0.666-3.949c-0.543-16.517-6.752-27.985-9.373-32.125c1.684-1.961,2.679-4.519,2.62-7.273
		c-0.24-11.077-3.215-19.555-6.165-25.307c12.501,7.827,25.914,13.388,39.911,18.569c27.379,10.134,53.706,20.067,81.377,30.205
		c19.846,7.271,39.049,12.921,60.523,7.763c7.906-1.899,15.567-5.606,24.031-4.635c5.346,0.614,10.283,3.49,15.788,2.424
		c4.427-0.857,7.253-4.5,11.274-6.403c11.928-5.645,24.784-2.22,37.339-5.795c15.078-4.293,29.538-12.48,43.808-18.912
		c7.266-3.275,13.59-7.251,20.191-11.25c-41.869,48.558-90.838,89.767-144.221,107.742
		C565.737,1131.257,550.001,1115.104,548.968,1113.755z M1002.122,639.663c0,0,0,0,0-0.003c-0.03-1.819-0.119-3.627-0.17-5.444
		l11.086-1.118c-3.813,5.633-7.444,11.362-10.913,17.175C1002.157,646.736,1002.179,643.195,1002.122,639.663z M1031.28,611.413
		c-1.411,1.287-2.797,2.615-4.161,3.98c-1.4-0.107-2.802-0.198-4.209-0.233c-4.606-0.144-9.128,0.349-13.613,0.266
		c-2.748-0.009-5.497-0.133-8.249-0.214c-0.076-1.101-0.12-2.227-0.203-3.32c-0.073-0.952-0.148-1.883-0.223-2.797
		c4.738,0.209,9.494,0.107,14.248-0.097c2.795-0.123,5.589-0.285,8.382-0.605c2.753-0.318,5.48-0.541,8.247-0.61
		c1.363-0.063,2.725-0.081,4.087-0.073C1034.135,608.917,1032.69,610.136,1031.28,611.413z M1031.492,606.454
		c-2.791-0.064-5.616,0.031-8.396,0.219c-2.741,0.183-5.503,0.211-8.264,0.201c-4.812-0.042-9.623-0.382-14.446-0.502
		c-0.2-2.251-0.406-4.356-0.61-6.328c0.266,0.026,0.531,0.05,0.797,0.076c6.576,0.527,13.193,0.505,19.806,0.317
		c3.31-0.122,6.619-0.255,9.928-0.649c3.264-0.38,6.495-0.652,9.771-0.719c2.229-0.088,4.456-0.058,6.683,0.01
		c-3.396,2.457-6.756,4.983-10.03,7.659C1034.989,606.599,1033.244,606.485,1031.492,606.454z M1082.995,554.133
		c-5.868-0.06-11.777,0.367-17.594,0.923c-5.761,0.564-11.608,0.465-17.426,0.368c-11.657-0.359-23.286-1.477-34.938-2.316
		l-17.494-1.29c-0.496-0.029-0.988-0.067-1.482-0.099c-0.532-2.558-1.126-5.132-1.769-7.717l3.987,0.568
		c6.309,0.883,12.641,1.578,18.973,2.312c12.678,1.324,25.433,1.968,38.205,2.092c6.388-0.013,12.788-0.031,19.18-0.803
		c6.327-0.75,12.601-1.348,18.954-1.425c10.867-0.195,21.787,0.521,32.549,2.244c-1.145,0.73-2.282,1.479-3.406,2.26
		c-2.892,2.118-5.328,3.969-7.917,5.741C1103.016,555.213,1093.001,554.23,1082.995,554.133z M524.991,715.408
		c-1.169,2.97-2.39,5.921-3.658,8.849c-5.736,13.246-12.306,26.113-19.206,38.784c-6.909,12.67-14.211,25.122-21.734,37.435
		c-6.357,10.355-12.866,20.605-19.585,30.741c-0.767-0.557-1.512-1.097-2.212-1.605c6.836-9.961,13.522-20.047,20.014-30.248
		c7.707-12.165,15.195-24.473,22.293-37.004c7.089-12.533,13.854-25.265,19.79-38.386c0.905-2.002,1.784-4.016,2.646-6.037
		C523.889,717.094,524.441,716.253,524.991,715.408z M402.262,867.284c5.039-2.166,10.07-4.348,15.086-6.564
		c0.564,0.722,1.153,1.47,1.761,2.238c-8.333,3.563-16.699,7.038-25.094,10.44C396.969,871.346,399.705,869.31,402.262,867.284z
		 M372.808,889.729c17.431-6.287,34.782-12.837,51.971-19.722c0.595,0.729,1.206,1.474,1.832,2.237
		c-17.593,6.825-35.297,13.276-53.104,19.467c-19.072,6.595-38.253,12.886-57.598,18.634c-0.399,0.119-0.799,0.23-1.198,0.348
		c9.926-3.478,18.843-6.85,26.916-10.138C352.06,897.058,362.453,893.445,372.808,889.729z M207.589,942.001
		c10.315-1.298,20.561-3.09,30.759-5.087c22.725-4.491,45.189-10.228,67.49-16.476c22.305-6.25,44.434-13.12,66.444-20.338
		c20.144-6.642,40.203-13.583,60.095-20.907c0.614,0.734,1.242,1.483,1.88,2.243c-20.328,7.268-40.776,14.115-61.33,20.664
		c-22.107,7.003-44.327,13.656-66.719,19.688c-22.388,6.03-44.933,11.546-67.73,15.813c-11.25,2.086-22.553,3.951-33.939,5.148
		C205.558,942.5,206.558,942.257,207.589,942.001z M378.993,949.615c30.835-7.822,61.577-16.043,92.144-24.804
		c0.589,0.791,1.165,1.582,1.736,2.374c-21.053,5.901-42.169,11.534-63.337,16.963C399.854,945.767,389.616,947.604,378.993,949.615
		z"/>
	<path fill="#FFFFFF" d="M837.707,980.502c-6.601,3.998-12.925,7.974-20.191,11.25c-14.27,6.432-28.73,14.619-43.808,18.912
		c-12.556,3.575-25.412,0.149-37.339,5.795c-4.021,1.903-6.848,5.546-11.274,6.403c-5.505,1.066-10.442-1.81-15.788-2.424
		c-8.464-0.971-16.125,2.737-24.031,4.635c-21.474,5.158-40.677-0.493-60.523-7.763c-27.671-10.137-53.998-20.071-81.377-30.205
		c-13.997-5.181-27.411-10.742-39.911-18.569c2.949,5.752,5.925,14.229,6.165,25.307c0.059,2.753-0.936,5.311-2.62,7.273
		c2.621,4.14,8.83,15.608,9.373,32.125c0.045,1.381-0.198,2.714-0.666,3.949c0.548,0.376,1.027,0.853,1.404,1.414
		c0.365,0.542,8.96,13.503,11.248,32.842c0.184,1.551-0.029,3.07-0.543,4.474c2.147,2.364,11.868,13.545,19.19,29.956
		c0.772,1.73,0.984,3.624,0.673,5.493c0.614,0.678,1.067,1.501,1.28,2.388c1.034,1.349,16.769,17.502,144.518-25.512
		C746.869,1070.269,795.839,1029.06,837.707,980.502z"/>
	<path fill="#FFFFFF" d="M444.181,197.272c-3.562-1.649-7.505-2.273-11.373-2.285c-7.798,0.089-15.291,2.873-21.653,6.954
		c-6.301,4.195-11.645,9.734-14.885,16.102c-3.315,6.299-4.052,13.546-1.087,18.922c2.991,5.368,9.533,8.553,16.624,9.089
		c7.113,0.614,14.636-0.972,21.532-4.092c6.832-3.227,13.165-8.1,17.377-14.663c2.041-3.285,3.599-6.958,4.093-10.852
		c0.507-3.877-0.124-7.943-2.007-11.421C450.851,201.588,447.739,198.897,444.181,197.272z M447.489,218.393
		c-0.467,3.136-1.62,6.041-3.31,8.501c-1.525,2.284-3.401,4.241-5.488,5.875c-1.385,1.969-3.274,3.708-5.602,4.999
		c-7.23,4.008-15.894,2.204-19.349-4.03s-0.395-14.537,6.836-18.545c7.231-4.008,15.894-2.204,19.349,4.03
		c0.722,1.302,1.143,2.696,1.318,4.121c1.614-4.116,1.805-8.499-0.062-11.874c-2.109-3.778-6.653-6.049-11.65-6.583
		c-5.027-0.562-10.335,0.309-15.664,1.946c4.277-3.581,9.856-5.908,15.823-6.087c2.983-0.132,6.058,0.437,8.967,1.699
		c2.889,1.287,5.533,3.539,7.168,6.451C447.422,211.826,447.932,215.262,447.489,218.393z"/>
	<path fill="#FFFFFF" d="M533.886,694.142c17.206-27.113,33.325-54.026,45.747-76.589c14.898-27.059,24.063-56.328,30.755-77.697
		c7.148-22.837,9.823-31.383,16.288-30.973c5.3,0.37,8.141,6.848,12.096,28.987c9.672,54.14-43.129,187.89-75.344,265.253
		c7.599,37.89,12.344,76.621,12.688,114.793c7.395-3.335,18.719-5.646,31.497-8.251c5.151-1.05,10.018-2.042,14.009-3.019
		c1.105-0.27,2.236-0.36,3.362-0.265c4.607,0.387,8.344,3.687,9.3,8.211c2.315,10.955,3.315,18.703,3.539,24.256
		c2.462,0.215,4.865,0.413,7.226,0.599c4.46-5.701,13.283-14.33,30.986-27.34c1.905-1.399,4.246-2.061,6.593-1.864c0,0,0,0,0,0
		c3.687,0.31,6.842,2.629,8.237,6.054c1.917,4.708,3.457,8.854,4.687,12.508c24.703-16.383,73.074-40.785,88.846-65.07
		c16.206-24.953,25.362-51.784,36.89-75.606c7.479-15.454,11.293-23.957,12.989-38.214c1.39-11.687-3.407-20.21-1.416-31.058
		c3.973-21.645,13.732-41.237,6.506-63.102c-7.6-22.993-27.102-39.201-35.171-62.46c-7.701-22.195-4.35-45.806-6.303-69.488
		c-2.062-25.008-7.875-53.191-25.975-71.476c-20.604-20.814-50.148-30.011-72.446-46.174c-26.003-18.85-36.722-47.051-55.801-70.259
		c-17.759-21.603-33.889-35.438-58.237-44.63c-1.269,20.862-7.15,41.394-16.006,60.413c-9.619,20.614-22.69,39.634-38.399,56.26
		c-7.88,8.292-16.448,15.992-25.848,22.705c-4.741,3.349-9.495,6.493-14.857,9.19c-5.311,2.645-10.904,4.657-16.599,6.144
		c-11.411,2.985-23.181,3.868-34.803,3.548c-5.817-0.183-11.617-0.658-17.377-1.442c-2.281-0.313-4.528-0.668-6.774-1.06
		c3.116,6.526,8.244,15.899,16.053,26.377C442.048,488.467,495.113,579.035,533.886,694.142z M604.745,479.83
		c4.53-2.584,9.525-4.514,14.835-5.431c5.3-0.892,10.948-0.577,16.208,1.149c5.34,1.622,9.963,4.696,14.151,7.905
		c4.217,3.228,8,6.81,11.724,10.183c1.865,1.673,3.729,3.294,5.608,4.653c1.859,1.346,3.809,2.443,5.377,2.745
		c1.534,0.245,2.518,0.008,3.909-1.125c1.347-1.096,2.639-2.941,3.749-4.921c0.602-0.987,1.03-2.047,1.456-3.105
		c0.4-1.068,0.969-2.066,1.25-3.184c0.565-2.232,1.246-4.427,1.406-6.772c1.371-9.254-0.689-19.016-4-28.131
		c-3.257-9.223-8.447-17.772-14.466-25.577c-2.999-3.939-6.488-7.448-10.091-10.823c-3.609-3.188-7.931-6.351-11.724-9.894
		c-3.769-3.599-7.356-7.431-10.309-11.747c-2.868-4.289-5.473-9.126-5.681-14.32c0.424,2.53,1.611,4.818,2.916,6.956
		c1.285,2.16,2.857,4.136,4.501,6.021c3.341,3.741,7.098,7.086,11.088,10.123c3.988,3.092,8.162,5.642,12.518,8.856
		c4.159,3.254,8.049,6.87,11.522,10.845c7.031,7.879,12.756,16.949,16.741,26.852c3.866,9.893,6.304,20.76,4.879,31.863
		c-0.226,2.775-1.061,5.477-1.809,8.182c-0.373,1.352-1.06,2.616-1.584,3.924c-0.551,1.304-1.117,2.598-1.857,3.794
		c-1.433,2.423-3.049,4.899-5.677,7.043c-1.262,1.085-2.964,1.967-4.796,2.501c-1.883,0.449-3.867,0.428-5.586,0
		c-3.433-0.879-5.883-2.627-8.101-4.308c-2.198-1.722-4.123-3.541-5.997-5.346c-3.745-3.594-7.205-7.243-10.906-10.482
		c-3.69-3.239-7.632-6.075-11.977-7.799c-4.324-1.85-9.145-2.544-13.98-2.178c-4.854,0.282-9.696,1.625-14.33,3.533
		c-4.625,1.938-9.126,4.37-13.262,7.39C596.045,485.541,600.214,482.41,604.745,479.83z"/>
	<path fill="#FFFFFF" d="M406.97,434.136c0.708,0.165,1.336,0.504,1.904,0.92c4.521,1.281,9.411,2.361,14.186,3.199
		c5.398,0.955,10.85,1.619,16.311,2.009c10.913,0.737,21.927,0.332,32.497-1.993c5.279-1.156,10.438-2.787,15.332-4.985
		c4.831-2.178,9.661-5.087,14.252-8.078c9.235-6.064,17.835-13.196,25.82-20.97c15.93-15.595,29.516-33.768,39.787-53.718
		c9.467-18.429,16.108-38.537,18.18-59.324c-2.885-1.084-5.858-2.118-8.991-3.077c-22.644-6.934-36.828-17.619-51.164-36.617
		c-13.161-17.441-26.961-34.34-41.483-51.127c-6.728-7.777-14.988-15.536-24.665-19.281c-11.12-4.303-18.844-6.02-26.855-17.074
		c-12.426-17.147-14.096-38.963-30.184-54.243c-10.434-9.908-22.522-2.921-34.849-5.192c-12.327-2.271-22.883-9.507-33.821-14.891
		c-3.867-1.903-6.323-3.411-9.932-5.452c-2.439-0.245-4.799-0.492-7.024-0.725c-5.37-0.564-10.005-1.051-13.069-1.21
		c-2.293-0.118-3.974,0.293-4.999,1.223c-0.783,0.711-1.144,1.693-1.298,2.286c0.537,1.57,2.751,7.207,10.675,20.164
		c11.891,19.439,15.181,51.731,10.177,67.614c-4.446,14.116-8.915,36.268-10.385,44.785c-0.478,2.772-3.107,4.701-5.829,4.373
		c-2.794-0.315-4.858-2.755-4.705-5.565c0.01-0.215,0.919-23.254-16.389-40.447c-17.907-17.792-42.642-32.297-58.045-38.244
		c-4.617-1.785-7.838-2.927-10.091-3.728c-0.122-0.041-0.24-0.085-0.359-0.126c0.18,1.607,0.655,3.69,1.671,6.333
		c5.547,14.412,23.213,53.897,28.576,59.403c7.607,7.818,16.238,28.861,17.845,34.723c1.29,4.706,5.423,11.514,9.798,18.716
		l0.816,1.346c4.746,7.83,15.692,28.055,20.508,38.889C297.125,307.442,375.563,426.829,406.97,434.136z M419.973,187.441
		c4.819-1.251,9.861-1.791,14.89-1.436c5.028,0.329,10.035,1.721,14.528,4.179c4.476,2.476,8.35,6.179,10.891,10.697
		c2.481,4.549,3.573,9.796,3.297,14.904c-0.293,5.114-1.771,10.095-4.155,14.533c-4.719,8.942-12.482,15.918-21.309,20.259
		c4.138-2.675,8.004-5.72,11.288-9.308c3.336-3.521,6.169-7.511,8.202-11.858c4.12-8.576,4.997-18.984,0.357-27.243
		c-4.548-8.309-13.837-13.081-23.293-14.13c-4.763-0.579-9.648-0.294-14.401,0.672c-4.783,0.882-9.415,2.547-13.876,4.636
		C410.568,190.726,415.176,188.778,419.973,187.441z M385.739,227.069c0.574-4.575,2.337-8.747,4.599-12.422
		c4.668-7.33,11.518-12.627,18.897-16.17c7.45-3.419,15.608-5.234,23.616-4.594c7.895,0.538,16.027,4.133,19.952,11.144
		c3.865,7.043,2.61,15.846-1.117,22.829c-3.696,7.135-9.558,13.098-16.406,17.609c-6.915,4.382-15.044,7.394-23.737,7.456
		c-4.315-0.032-8.796-0.735-12.975-2.691c-4.167-1.913-7.979-5.188-10.347-9.404C385.9,236.581,385.154,231.614,385.739,227.069z
		 M400.814,385.886c7.635,0.786,15.293,1.095,22.665-0.102l5.425-1.155c1.827-0.321,3.475-1.143,5.223-1.676
		c1.716-0.509,3.47-1.381,5.216-2.181c1.756-0.781,3.491-1.608,5.18-2.529c6.884-3.418,13.516-7.38,19.755-11.902
		c6.323-4.418,12.187-9.459,17.812-14.772c11.122-10.761,20.756-23.196,28.036-37.348c-4.187,15.412-12.785,29.619-23.555,41.655
		c-5.346,6.093-11.426,11.517-17.813,16.533c-6.443,4.956-13.419,9.203-20.644,12.939c-1.804,0.944-3.653,1.792-5.527,2.592
		c-1.865,0.818-3.674,1.687-5.762,2.305c-2.035,0.607-4.015,1.496-6.098,1.847c-2.071,0.395-4.14,0.846-6.219,1.143
		c-8.352,0.892-16.65,0.349-24.639-1.229c-15.986-3.12-30.986-9.525-44.307-18.235C370.343,379.534,385.511,384.063,400.814,385.886
		z M277.654,187.259c1.83,2.664,3.629,5.363,4.904,8.356c1.187,2.964,2.29,6.204,1.747,9.403c-0.063-3.19-1.38-6.139-2.909-8.834
		c-1.458-2.758-3.385-5.248-5.346-7.674c-4.05-4.777-8.659-9.067-13.398-13.197c-4.806-4.069-9.799-7.932-14.886-11.697
		c-5.067-3.801-10.34-7.318-15.467-11.125c2.856,1.414,5.629,2.979,8.454,4.469c2.795,1.537,5.44,3.322,8.173,4.976
		c5.407,3.402,10.522,7.265,15.452,11.363C269.167,177.557,273.853,182.016,277.654,187.259z M281.8,234.837
		c2.674,0.47,5.337,0.919,7.961,1.459l7.931,1.23c5.299,0.601,10.544,1.297,15.796,1.357c5.232,0.235,10.447-0.001,15.523-0.612
		c2.529-0.351,5.04-0.773,7.448-1.428c0.832-0.204,1.635-0.455,2.432-0.712c-3.594-5.786-5.317-12.271-6.313-18.513
		c-1.274-7.911-1.204-15.797-0.705-23.549c0.596-7.758,1.757-15.407,3.4-22.932c1.663-7.517,3.68-14.949,6.457-22.123
		c-0.809,7.635-1.576,15.201-2.149,22.754c-0.531,7.552-0.988,15.078-0.925,22.551c-0.064,7.462,0.424,14.89,1.598,22.026
		c1.331,7.042,3.405,14.045,7.577,19.024l0.13,0.155c1.329,1.585,1.12,3.947-0.465,5.276c-0.213,0.178-0.456,0.336-0.692,0.459
		c-1.746,0.898-2.96,1.257-4.432,1.771c-1.41,0.421-2.828,0.771-4.239,1.045c-2.825,0.591-5.647,0.898-8.459,1.121
		c-5.629,0.451-11.21-0.06-16.675-0.765c-5.474-0.759-10.814-2.072-16.034-3.646c-2.596-0.844-5.164-1.748-7.705-2.696
		C286.741,237.059,284.265,235.938,281.8,234.837z"/>
	<path fill="#FFFFFF" d="M538.813,1114.885c2.69-1.1,4.538-4.193,3.353-6.847c-6.295-14.108-14.518-24.243-17.494-27.669
		c-1.492,1.244-3.343,2.115-5.408,2.415c-0.612,0.089-1.288,0.158-1.989,0.219c-1.733,2.854-4.384,7.543-11.774,14.924
		c-6.832,6.823-10.285,11.026-12.021,13.467c-1.094,1.539-0.449,3.675,1.307,4.372c3.667,1.456,7.967,2.283,12.443,2.659
		C519.754,1119.476,533.646,1116.998,538.813,1114.885z"/>
	<path fill="#FFFFFF" d="M518.502,1077.529c2.691-0.39,4.909-2.79,4.593-5.46c-2.164-18.287-10.381-30.502-10.381-30.502
		c-0.047-0.011-0.079-0.011-0.125-0.021c-1.48,1.243-3.304,2.093-5.328,2.391c-1.822,2.544-4.731,6.802-13.739,12.21
		c-14.575,8.752-14.745,11.758-14.745,11.758c6.677,6.316,18.043,8.941,27.324,9.72
		C511.273,1078.06,515.798,1077.921,518.502,1077.529z"/>
	<path fill="#FFFFFF" d="M506.319,1038.733c2.702-0.309,4.845-2.631,4.756-5.319c-0.495-15.067-6.083-25.506-8.423-29.251
		c-0.677,0.254-1.38,0.457-2.118,0.57c-1.028,0.156-2.245,0.309-3.58,0.437c-1.442,2.831-3.892,7.518-13.322,12.798
		c-14.833,8.307-13.655,11.093-13.655,11.093c6.522,6.554,16.62,9.039,24.997,9.743
		C499.562,1039.189,503.635,1039.04,506.319,1038.733z"/>
	<path fill="#FFFFFF" d="M499.736,999.483c2.706-0.412,4.643-2.79,4.584-5.526c-0.434-20.101-10.658-30.621-10.658-30.621
		c-0.39-0.09-0.732-0.146-1.033-0.172c-4.943-0.415,1.208,7.654-14.614,17.303c-14.605,8.908-11.946,11.176-11.946,11.176
		c6.029,5.625,13.702,7.758,20.585,8.336C491.79,1000.411,496.49,999.977,499.736,999.483z"/>
	<path fill="#221E1F" d="M424.508,393.234c2.079-0.296,4.148-0.747,6.219-1.143c2.082-0.35,4.063-1.239,6.098-1.847
		c2.088-0.618,3.897-1.487,5.762-2.305c1.873-0.8,3.723-1.648,5.527-2.592c7.226-3.736,14.201-7.983,20.644-12.939
		c6.387-5.016,12.467-10.44,17.813-16.533c10.77-12.036,19.368-26.243,23.555-41.655c-7.28,14.152-16.914,26.587-28.036,37.348
		c-5.624,5.313-11.488,10.355-17.812,14.772c-6.239,4.522-12.871,8.484-19.755,11.902c-1.689,0.921-3.424,1.748-5.18,2.529
		c-1.746,0.801-3.5,1.672-5.216,2.181c-1.748,0.533-3.396,1.355-5.223,1.676l-5.425,1.155c-7.372,1.197-15.03,0.888-22.665,0.102
		c-15.303-1.823-30.471-6.353-45.252-12.116c13.322,8.71,28.321,15.116,44.307,18.235
		C407.858,393.583,416.156,394.126,424.508,393.234z"/>
	<path fill="#221E1F" d="M312.998,244.433c5.465,0.705,11.046,1.216,16.675,0.765c2.812-0.223,5.635-0.531,8.459-1.121
		c1.41-0.274,2.829-0.624,4.239-1.045c1.471-0.514,2.686-0.872,4.432-1.771c0.236-0.123,0.48-0.282,0.692-0.459
		c1.585-1.328,1.794-3.69,0.465-5.276l-0.13-0.155c-4.171-4.979-6.246-11.982-7.577-19.024c-1.174-7.137-1.662-14.565-1.598-22.026
		c-0.062-7.473,0.394-14.999,0.925-22.551c0.573-7.553,1.34-15.119,2.149-22.754c-2.777,7.175-4.794,14.606-6.457,22.123
		c-1.643,7.525-2.804,15.174-3.4,22.932c-0.5,7.752-0.57,15.638,0.705,23.549c0.996,6.242,2.719,12.727,6.313,18.513
		c-0.797,0.257-1.6,0.508-2.432,0.712c-2.408,0.655-4.919,1.076-7.448,1.428c-5.076,0.611-10.291,0.846-15.523,0.612
		c-5.252-0.06-10.497-0.756-15.796-1.357l-7.931-1.23c-2.624-0.539-5.287-0.988-7.961-1.459c2.465,1.1,4.941,2.222,7.459,3.253
		c2.541,0.948,5.109,1.852,7.705,2.696C302.184,242.361,307.524,243.674,312.998,244.433z"/>
	<path fill="#221E1F" d="M398.568,250.23c4.179,1.955,8.66,2.659,12.975,2.691c8.694-0.063,16.822-3.075,23.737-7.456
		c6.848-4.511,12.71-10.474,16.406-17.609c3.727-6.983,4.981-15.785,1.117-22.829c1.882,3.478,2.514,7.543,2.007,11.421
		c-0.494,3.895-2.052,7.567-4.093,10.852c-4.213,6.562-10.545,11.436-17.377,14.663c-6.896,3.12-14.419,4.707-21.532,4.092
		c-7.091-0.535-13.632-3.721-16.624-9.089c-2.965-5.376-2.228-12.623,1.087-18.922c3.24-6.368,8.584-11.907,14.885-16.102
		c6.362-4.082,13.855-6.866,21.653-6.954c3.868,0.011,7.81,0.636,11.373,2.285c3.558,1.625,6.67,4.315,8.622,7.754
		c-3.925-7.011-12.056-10.606-19.952-11.144c-8.008-0.64-16.166,1.175-23.616,4.594c-7.378,3.543-14.229,8.84-18.897,16.17
		c-2.262,3.675-4.025,7.847-4.599,12.422c-0.585,4.545,0.161,9.512,2.482,13.757C390.589,245.042,394.401,248.317,398.568,250.23z"
		/>
	<path fill="#FFFFFF" d="M431.946,225.649c-0.656-1.184-2.581-1.372-4.299-0.419s-2.579,2.684-1.923,3.869
		c0.656,1.184,2.581,1.372,4.299,0.419C431.742,228.565,432.603,226.833,431.946,225.649z"/>
	<path fill="#221E1F" d="M620.042,478.283c4.835-0.365,9.656,0.328,13.98,2.178c4.345,1.723,8.287,4.56,11.977,7.799
		c3.701,3.239,7.161,6.888,10.906,10.482c1.874,1.805,3.799,3.624,5.997,5.346c2.218,1.681,4.668,3.428,8.101,4.308
		c1.719,0.428,3.703,0.449,5.586,0c1.832-0.534,3.534-1.416,4.796-2.501c2.628-2.143,4.244-4.619,5.677-7.043
		c0.74-1.195,1.305-2.49,1.857-3.794c0.525-1.308,1.211-2.572,1.584-3.924c0.748-2.705,1.583-5.407,1.809-8.182
		c1.425-11.103-1.013-21.97-4.879-31.863c-3.985-9.903-9.71-18.973-16.741-26.852c-3.473-3.975-7.363-7.59-11.522-10.845
		c-4.357-3.214-8.531-5.764-12.518-8.856c-3.989-3.037-7.747-6.382-11.088-10.123c-1.645-1.885-3.217-3.86-4.501-6.021
		c-1.305-2.137-2.491-4.425-2.916-6.956c0.208,5.194,2.813,10.032,5.681,14.32c2.953,4.316,6.539,8.148,10.309,11.747
		c3.793,3.543,8.115,6.706,11.724,9.894c3.604,3.376,7.092,6.885,10.091,10.823c6.02,7.806,11.209,16.354,14.466,25.577
		c3.311,9.114,5.371,18.877,4,28.131c-0.16,2.345-0.84,4.54-1.406,6.772c-0.281,1.117-0.85,2.115-1.25,3.184
		c-0.426,1.058-0.854,2.117-1.456,3.105c-1.109,1.979-2.401,3.824-3.749,4.921c-1.39,1.133-2.374,1.37-3.909,1.125
		c-1.567-0.302-3.518-1.399-5.377-2.745c-1.879-1.36-3.743-2.98-5.608-4.653c-3.724-3.373-7.507-6.955-11.724-10.183
		c-4.188-3.209-8.811-6.283-14.151-7.905c-5.26-1.727-10.908-2.041-16.208-1.149c-5.31,0.917-10.305,2.847-14.835,5.431
		c-4.532,2.58-8.701,5.711-12.295,9.376c4.136-3.02,8.637-5.452,13.262-7.39C610.346,479.908,615.188,478.564,620.042,478.283z"/>
	<path fill="#221E1F" d="M438.655,202.445c-2.909-1.262-5.984-1.831-8.967-1.699c-5.967,0.178-11.546,2.506-15.823,6.087
		c5.329-1.637,10.637-2.508,15.664-1.946c4.997,0.534,9.541,2.806,11.65,6.583c1.868,3.375,1.676,7.759,0.062,11.874
		c-0.175-1.425-0.596-2.819-1.318-4.121c-3.456-6.234-12.118-8.038-19.349-4.03c-7.231,4.008-10.291,12.311-6.836,18.545
		s12.119,8.038,19.349,4.03c2.329-1.291,4.217-3.03,5.602-4.999c2.086-1.634,3.963-3.591,5.488-5.875
		c1.69-2.459,2.843-5.365,3.31-8.501c0.444-3.131-0.066-6.566-1.666-9.497C444.189,205.984,441.545,203.732,438.655,202.445z
		 M425.724,229.098c-0.657-1.184,0.204-2.916,1.923-3.869s3.643-0.765,4.299,0.419c0.657,1.184-0.204,2.916-1.923,3.869
		C428.305,230.47,426.38,230.282,425.724,229.098z"/>
	<path fill="#FFFFFF" d="M699.985,947.589c0.559-0.02,1.117-0.039,1.676-0.059c1.155-0.077,2.31-0.173,3.465-0.261
		c0.183-1.008,0.538-2.229,1.179-3.717c-2.237,0.246-4.479,0.457-6.724,0.641C699.779,945.452,699.909,946.579,699.985,947.589z"/>
	<path fill="#FFFFFF" d="M907.856,844.915c-0.068-0.134-0.14-0.279-0.212-0.431c-0.787,0.819-1.582,1.63-2.378,2.441
		c0.4,1.483,0.75,2.952,1.017,4.332c1.22-1.3,2.417-2.621,3.614-3.942C909.065,846.687,908.353,845.898,907.856,844.915z"/>
	<path fill="#FFFFFF" d="M868.853,883.937c-1.182-0.871-1.97-1.908-2.429-3.117c-1.279,0.941-2.569,1.865-3.864,2.785
		c0.411,2.007,0.63,3.832,0.72,5.535c2.144-1.534,4.264-3.1,6.362-4.696C869.38,884.273,869.109,884.125,868.853,883.937z"/>
	<path fill="#FFFFFF" d="M637.763,944.409c1.264,0.149,2.525,0.316,3.79,0.458c0.115-0.24,0.239-0.489,0.378-0.75
		c-1.378-0.072-2.756-0.147-4.134-0.222C637.786,944.068,637.776,944.242,637.763,944.409z"/>
	<path fill="#FFFFFF" d="M765.22,929.65c-2.069,0.713-4.143,1.409-6.223,2.085c0.233,1.71,0.403,3.365,0.478,4.901
		c1.917-0.587,3.829-1.187,5.735-1.802C764.766,933.089,764.853,931.324,765.22,929.65z"/>
	<path fill="#FFFFFF" d="M816.831,915.422c0.505-0.215,1.001-0.445,1.504-0.664c-1.225-1.277-2.053-2.89-2.406-4.733
		c-0.389,0.166-0.771,0.343-1.161,0.507c-1.327,0.557-2.664,1.097-3.993,1.649c0.123,2.322,0.122,4.192,0.046,5.688
		C812.824,917.054,814.83,916.248,816.831,915.422z"/>
	<path fill="#FFFFFF" d="M943.86,799.96c-1.081,1.583-2.141,3.182-3.248,4.747c0.25,0.514,0.486,1.007,0.704,1.476
		c1.13-1.777,2.195-3.591,3.287-5.39C944.344,800.525,944.097,800.247,943.86,799.96z"/>
	<path fill="#FFFFFF" d="M965.84,760.908c-0.015-0.001-0.029-0.002-0.044-0.003c-2.19-0.141-10.497,6.611-13.457,9.854
		c-4.119,4.512-10.557,20.53-3.511,26.754c0.486,0.429,1.047,0.659,1.666,0.71c7.279,0.612,22.583-23.3,17.783-35.751
		C967.951,761.628,966.753,760.984,965.84,760.908z"/>
	<path fill="#FFFFFF" d="M938.836,815.561c0.526-1.54-2.961-8.593-5.056-12.604c-0.313-0.6-0.881-0.93-1.469-0.979
		c-0.645-0.054-1.317,0.229-1.706,0.862c-5.754,9.365-23.977,39.982-16.571,40.605c0.534,0.045,1.202-0.067,2.018-0.353
		C935.489,836.255,938.092,817.742,938.836,815.561z"/>
	<path fill="#FFFFFF" d="M901.493,856.17c0.244-2.902-2.072-11.252-4.432-17.203c-0.138-0.348-0.592-0.568-1.234-0.622
		c-1.916-0.161-5.51,1.155-7.409,4.944c-5.253,10.48-20.589,33.296-16.414,36.374c1.447,1.066,2.968,1.615,4.525,1.746
		C887.853,882.359,901.071,861.188,901.493,856.17z"/>
	<path fill="#FFFFFF" d="M857.529,894.353c2.236-6.449-3.042-19.928-5.76-26.139c-0.372-0.851-1.15-1.341-1.968-1.409
		c-0.692-0.058-1.413,0.185-1.941,0.766c-8.268,9.091-34.387,39.029-24.704,44.272c1.491,0.807,3.125,1.252,4.848,1.397
		C839.512,914.206,854.953,901.779,857.529,894.353z"/>
	<path fill="#FFFFFF" d="M804.839,921.801c1.796-5.406-0.185-18.856-1.619-26.832c-0.254-1.414-1.4-2.272-2.623-2.375
		c-0.904-0.076-1.85,0.261-2.511,1.091l-24.298,30.554c0,0-9.082,11.295,1.731,12.765c0.29,0.039,0.581,0.071,0.878,0.096
		C787.172,938.005,802.282,929.5,804.839,921.801z"/>
	<path fill="#FFFFFF" d="M748.765,910.78c-0.42-1.365-1.6-2.192-2.863-2.298c-0.857-0.072-1.752,0.188-2.473,0.836
		c-10.648,9.569-41.486,38.48-30.991,43.326c1.722,0.795,3.701,1.249,5.842,1.429c13.543,1.138,33.546-8.694,35.59-12.636
		C755.662,937.984,751.448,919.486,748.765,910.78z"/>
	<path fill="#FFFFFF" d="M685.948,918.298c-0.668-1.64-2.165-2.63-3.763-2.764c-1.025-0.086-2.09,0.18-3.005,0.852
		c-11.104,8.16-38.22,29.163-32.978,36.024c2.651,3.468,9.146,5.207,16.554,5.829c10.929,0.918,23.846-0.593,29.33-2.565
		C699.196,953.118,690.34,929.089,685.948,918.298z"/>
	<path fill="#FFFFFF" d="M629.089,915.689c-0.478-2.262-2.373-3.835-4.55-4.017c-0.54-0.045-1.098-0.005-1.655,0.131
		c-14.393,3.522-39.34,7.131-47.62,12.545c-1.469-0.539-2.922-1.096-4.426-1.599c1.006,0.912,2.039,1.786,3.096,2.628
		c-1.08,0.998-1.606,2.053-1.388,3.18c2.179,11.237,32.628,20.534,48.74,21.888c4.624,0.389,8.068,0.123,9.324-0.939
		C634.861,945.913,631.162,925.498,629.089,915.689z"/>
	<path fill="#221E1F" d="M248.927,161.935c-2.733-1.653-5.378-3.439-8.173-4.976c-2.825-1.49-5.598-3.055-8.454-4.469
		c5.127,3.807,10.4,7.324,15.467,11.125c5.087,3.766,10.08,7.628,14.886,11.697c4.739,4.13,9.348,8.42,13.398,13.197
		c1.96,2.426,3.888,4.916,5.346,7.674c1.528,2.695,2.845,5.644,2.909,8.834c0.543-3.199-0.56-6.439-1.747-9.403
		c-1.275-2.993-3.074-5.692-4.904-8.356c-3.8-5.243-8.487-9.702-13.275-13.962C259.449,169.2,254.334,165.336,248.927,161.935z"/>
	<path fill="#FFFFFF" d="M277.152,956.132c31.531-6.889,62.872-14.634,94.079-22.865c29.088-7.723,58.055-15.862,86.876-24.584
		c-0.654-0.761-1.309-1.522-1.964-2.277c-28.323,8.779-56.84,17.013-85.457,24.832c-31.123,8.45-62.382,16.416-93.84,23.527
		c-31.452,7.106-63.091,13.501-95.002,18.177c-15.954,2.313-31.969,4.315-48.064,5.351c-16.079,1.022-32.271,1.359-48.31-0.495
		c16.025,1.97,32.235,1.752,48.333,0.845c16.115-0.921,32.157-2.808,48.141-5.007C213.917,969.187,245.624,963.015,277.152,956.132z
		"/>
	<path fill="#FFFFFF" d="M570.76,650.168c-2.458,10.566-5.637,20.95-9.115,31.219c-6.957,20.547-15.213,40.633-23.986,60.467
		c-8.788,19.833-18.191,39.389-27.944,58.764c-8.45,16.703-17.17,33.284-26.209,49.664c0.67,0.634,1.35,1.278,2.034,1.928
		c9.01-16.729,17.666-33.621,26.055-50.656c9.557-19.505,18.761-39.186,27.347-59.14c8.571-19.954,16.622-40.155,23.368-60.807
		c3.372-10.322,6.444-20.755,8.791-31.362c1.028-4.675,1.938-9.391,2.641-14.133c-0.092,0.16-0.183,0.319-0.275,0.479
		C572.726,641.149,571.797,645.678,570.76,650.168z"/>
	<path fill="#FFFFFF" d="M465.748,917.858c-0.622-0.774-1.243-1.547-1.875-2.316c-31.071,9.241-62.345,17.886-93.723,26.08
		c-34.158,8.861-68.461,17.193-102.968,24.591c-17.246,3.733-34.552,7.187-51.911,10.353c-17.352,3.198-34.773,6.03-52.26,8.391
		c-17.485,2.342-35.032,4.341-52.656,5.287c-2.553,0.135-5.108,0.248-7.665,0.346c0.908,0.073,1.844,0.136,2.77,0.202
		c1.639-0.061,3.277-0.123,4.914-0.198c17.643-0.83,35.217-2.713,52.729-4.942c17.515-2.247,34.968-4.966,52.353-8.051
		c17.392-3.054,34.734-6.396,52.016-10.017c34.58-7.175,68.96-15.285,103.201-23.926C402.5,935.57,434.202,927.03,465.748,917.858z"
		/>
	<path fill="#FFFFFF" d="M419.108,862.959c-0.608-0.768-1.197-1.516-1.761-2.238c-5.015,2.215-10.047,4.398-15.086,6.564
		c-2.557,2.026-5.292,4.062-8.247,6.115C402.409,869.997,410.775,866.522,419.108,862.959z"/>
	<path fill="#FFFFFF" d="M525.404,748.695c-8.226,17.399-16.991,34.541-26.063,51.513c-7.709,14.354-15.647,28.6-23.85,42.666
		c0.377,0.336,0.748,0.657,1.129,1.003c0.3,0.274,0.615,0.567,0.919,0.846c8.159-14.373,16.022-28.889,23.66-43.534
		c8.878-17.107,17.448-34.378,25.474-51.903c8.013-17.526,15.57-35.282,21.979-53.464c3.204-9.087,6.143-18.28,8.444-27.642
		c0.505-2.067,0.974-4.147,1.42-6.232c-0.153,0.255-0.311,0.513-0.466,0.768c-0.415,1.797-0.835,3.594-1.293,5.377
		c-2.41,9.317-5.455,18.458-8.763,27.491C541.375,713.659,533.616,731.294,525.404,748.695z"/>
	<path fill="#FFFFFF" d="M314.711,910.692c0.399-0.118,0.799-0.229,1.198-0.348c19.345-5.748,38.526-12.039,57.598-18.634
		c17.807-6.191,35.511-12.642,53.104-19.467c-0.626-0.762-1.238-1.508-1.832-2.237c-17.189,6.886-34.54,13.435-51.971,19.722
		c-10.355,3.715-20.748,7.328-31.181,10.825C333.554,903.842,324.637,907.214,314.711,910.692z"/>
	<path fill="#FFFFFF" d="M371.22,920.857c-28.086,8.038-56.302,15.639-84.709,22.463c-28.403,6.82-56.983,12.996-85.832,17.61
		c-14.424,2.283-28.907,4.288-43.473,5.415c-14.552,1.114-29.215,1.605-43.767,0.112c14.539,1.609,29.219,1.236,43.793,0.237
		c14.589-1.011,29.099-2.902,43.555-5.072c28.912-4.388,57.566-10.341,86.046-16.94c28.486-6.603,56.785-13.983,84.958-21.804
		c26.246-7.332,52.375-15.041,78.366-23.279c-0.669-0.754-1.336-1.504-1.998-2.248C422.669,905.638,396.992,913.435,371.22,920.857z
		"/>
	<path fill="#FFFFFF" d="M238.479,937.602c22.797-4.268,45.342-9.784,67.73-15.813c22.392-6.032,44.611-12.685,66.719-19.688
		c20.554-6.549,41.002-13.396,61.33-20.664c-0.639-0.76-1.267-1.509-1.88-2.243c-19.892,7.324-39.952,14.265-60.095,20.907
		c-22.01,7.217-44.139,14.087-66.444,20.338c-22.302,6.248-44.765,11.985-67.49,16.476c-10.198,1.997-20.444,3.789-30.759,5.087
		c-1.03,0.256-2.031,0.499-3.048,0.748C215.926,941.554,227.229,939.688,238.479,937.602z"/>
	<path fill="#FFFFFF" d="M472.873,927.185c-0.571-0.792-1.148-1.583-1.736-2.374c-30.567,8.76-61.309,16.982-92.144,24.804
		c10.623-2.011,20.861-3.848,30.543-5.467C430.704,938.719,451.82,933.086,472.873,927.185z"/>
	<path fill="#FFFFFF" d="M602.605,638.786c-7.975,27.969-17.72,55.403-28.173,82.534c-10.473,27.131-21.788,53.93-33.584,80.51
		c-10.689,23.958-21.777,47.755-33.359,71.279c0.693,0.649,1.392,1.299,2.094,1.952c11.552-23.916,22.567-48.058,33.189-72.384
		c11.593-26.701,22.703-53.617,32.969-80.858c10.246-27.241,19.78-54.781,27.539-82.844c3.88-14.025,7.349-28.182,9.84-42.526
		c2.465-14.324,4.193-28.879,3.436-43.429c0.64,14.555-1.204,29.078-3.781,43.367C610.171,610.695,606.593,624.808,602.605,638.786z
		"/>
	<path fill="#FFFFFF" d="M598.769,614.315c-2.555,13.061-6,25.931-9.818,38.673c-7.636,25.495-16.885,50.48-26.778,75.179
		c-9.912,24.698-20.589,49.084-31.704,73.263c-9.956,21.544-20.268,42.938-31.015,64.084c0.685,0.653,1.372,1.307,2.067,1.967
		c10.721-21.533,20.967-43.271,30.86-65.18c10.915-24.302,21.39-48.806,31.095-73.617c9.687-24.812,18.726-49.905,26.148-75.497
		c3.71-12.791,7.048-25.706,9.49-38.804c2.376-12.852,4.093-25.916,3.654-39.004c-0.003,0.005-0.005,0.011-0.007,0.016
		C603.085,588.479,601.255,601.504,598.769,614.315z"/>
	<path fill="#FFFFFF" d="M467.211,836.002c0.697,0.54,1.405,1.095,2.128,1.673c7.38-12.16,14.513-24.445,21.46-36.846
		c8.201-14.71,16.135-29.571,23.603-44.668c7.456-15.098,14.519-30.409,20.591-46.123c2.816-7.285,5.415-14.662,7.579-22.171
		c-0.261,0.416-0.52,0.831-0.781,1.246c-2.176,6.995-4.715,13.874-7.449,20.668c-6.278,15.598-13.539,30.782-21.19,45.749
		c-7.663,14.966-15.79,29.691-24.179,44.26C481.92,811.98,474.676,824.072,467.211,836.002z"/>
	<path fill="#FFFFFF" d="M626.779,578.459c-2.65,15.555-6.363,30.911-10.52,46.125c-8.315,30.441-18.555,60.325-29.568,89.888
		c-11.035,29.563-22.987,58.777-35.463,87.758c-11.4,26.335-23.238,52.496-35.629,78.363c0.704,0.64,1.413,1.279,2.125,1.92
		c12.354-26.257,24.112-52.759,35.437-79.458c12.272-29.1,24.019-58.427,34.844-88.098c10.804-29.671,20.833-59.658,28.931-90.192
		c4.049-15.26,7.651-30.658,10.188-46.248c2.511-15.568,4.219-31.378,3.232-47.155C631.226,547.146,629.401,562.925,626.779,578.459
		z"/>
	<path fill="#FFFFFF" d="M520.692,723.974c-5.936,13.122-12.7,25.854-19.79,38.386c-7.098,12.531-14.586,24.839-22.293,37.004
		c-6.491,10.201-13.178,20.287-20.014,30.248c0.699,0.508,1.445,1.048,2.212,1.605c6.718-10.136,13.228-20.386,19.585-30.741
		c7.524-12.314,14.825-24.765,21.734-37.435c6.9-12.671,13.47-25.538,19.206-38.784c1.268-2.928,2.489-5.879,3.658-8.849
		c-0.55,0.845-1.102,1.685-1.652,2.529C522.477,719.958,521.598,721.972,520.692,723.974z"/>
	<path fill="#FFFFFF" d="M145.617,955.412c-0.05,0.009-0.098,0.017-0.148,0.026c11.717,0.802,23.497,0.287,35.194-0.691
		c13.063-1.101,26.042-2.996,38.969-5.136c25.854-4.328,51.453-10.062,76.887-16.376c25.438-6.317,50.698-13.334,75.838-20.746
		c23.37-6.932,46.629-14.201,69.761-21.943c-0.664-0.751-1.323-1.499-1.968-2.236c-22.653,7.79-45.481,15.146-68.398,22.166
		c-25.048,7.628-50.221,14.863-75.577,21.4c-25.353,6.534-50.875,12.49-76.662,17.043c-12.893,2.253-25.843,4.262-38.882,5.478
		C169.003,955.474,157.289,956.095,145.617,955.412z"/>
	<path fill="#FFFFFF" d="M588.408,609.32c-0.713,7.706-2.051,15.358-3.643,22.922c-2.507,11.813-5.819,23.44-9.468,34.946
		c-7.297,23.021-16.048,45.557-25.382,67.824c-9.35,22.266-19.391,44.237-29.825,66.014c-9.207,19.115-18.725,38.095-28.62,56.85
		c0.679,0.651,1.355,1.298,2.046,1.96c9.87-19.128,19.326-38.44,28.472-57.909c10.236-21.903,20.075-43.996,29.221-66.378
		c9.128-22.383,17.674-45.03,24.757-68.152c3.541-11.556,6.746-23.23,9.141-35.083c1.543-7.691,2.817-15.471,3.448-23.296
		C588.506,609.119,588.458,609.22,588.408,609.32z"/>
	<path fill="#221E1F" d="M434.668,188.038c9.456,1.049,18.745,5.821,23.293,14.13c4.64,8.259,3.763,18.667-0.357,27.243
		c-2.033,4.347-4.866,8.337-8.202,11.858c-3.284,3.588-7.15,6.633-11.288,9.308c8.827-4.341,16.59-11.317,21.309-20.259
		c2.384-4.438,3.862-9.42,4.155-14.533c0.277-5.108-0.815-10.355-3.297-14.904c-2.54-4.518-6.415-8.22-10.891-10.697
		c-4.493-2.459-9.5-3.851-14.528-4.179c-5.029-0.355-10.071,0.186-14.89,1.436c-4.797,1.336-9.405,3.285-13.583,5.904
		c4.462-2.089,9.093-3.754,13.876-4.636C425.019,187.744,429.905,187.458,434.668,188.038z"/>
</g>
</svg>
