<svg id="TRAZOS" xmlns="http://www.w3.org/2000/svg" viewBox="0 0 78 83"><defs><style>.cls-1{fill:none;stroke:#727070;stroke-linecap:round;stroke-linejoin:round;stroke-width:3px;}.cls-2{fill:#727070;}</style></defs><path class="cls-1" d="M18.37,50.08H16.24a4.23,4.23,0,0,1-4.11-4.33V31.07a4.23,4.23,0,0,1,4.11-4.33H64.09a4.23,4.23,0,0,1,4.12,4.33V45.75a4.23,4.23,0,0,1-4.12,4.33H42.81"/><path class="cls-1" d="M54.29,50.08V45c0-2.14-1.15-3.88-2.58-3.88H20.94c-1.42,0-2.57,1.74-2.57,3.88v4.22"/><path class="cls-2" d="M34.09,48.4q4.23,3.83-.17,7.6a5,5,0,0,0-.77.68,11.14,11.14,0,0,0-1.37,1.84,10.65,10.65,0,0,0-.87,5.95c.46,4,2.88,7.25,7,7.62,1.92.18,1.91-2.83,0-3-3.81-.34-4.9-5.66-3.76-8.49C34.8,59,36.68,58,37.64,56.68a8.41,8.41,0,0,0,1.5-5.27C39,48,37,44.88,33.3,45.51c-1.9.33-1.1,3.22.79,2.89Z"/><path class="cls-2" d="M23.59,48.4q4.23,3.83-.17,7.6a5,5,0,0,0-.77.68,11.73,11.73,0,0,0-1.37,1.84,10.65,10.65,0,0,0-.87,5.95c.46,4,2.88,7.25,7,7.62,1.92.18,1.91-2.83,0-3-3.81-.34-4.9-5.66-3.76-8.49.65-1.59,2.52-2.56,3.48-3.92a8.41,8.41,0,0,0,1.5-5.27c-.12-3.39-2.19-6.53-5.84-5.9-1.9.33-1.1,3.22.79,2.89Z"/></svg>