<svg id="TRAZOS" xmlns="http://www.w3.org/2000/svg" viewBox="0 0 78 83"><defs><style>.cls-1,.cls-2{fill:none;stroke:#727070;stroke-linejoin:round;stroke-width:3px;}.cls-2{stroke-linecap:round;}</style></defs><path class="cls-1" d="M64.8,70.07,64.57,43c0-.45.11.22,0-.23h5.09L43.44,13.56,42,14.92l-24.19,27-.56.68h5.53c-.11.45-.22-.11.12.34V70.07"/><line class="cls-2" x1="59.26" y1="29.78" x2="59.26" y2="20.63"/><line class="cls-2" x1="22.9" y1="70.07" x2="64.8" y2="70.07"/><line class="cls-2" x1="37.44" y1="53.91" x2="45.05" y2="53.91"/><line class="cls-2" x1="37.44" y1="59.01" x2="37.44" y2="53.91"/><line class="cls-2" x1="45.46" y1="48.41" x2="53.06" y2="48.41"/><line class="cls-2" x1="45.46" y1="53.51" x2="45.46" y2="48.41"/><line class="cls-2" x1="53.06" y1="42.71" x2="66.43" y2="42.71"/><line class="cls-2" x1="53.06" y1="47.81" x2="53.06" y2="42.71"/><line class="cls-2" x1="21.26" y1="42.51" x2="40.58" y2="42.51"/></svg>