<svg id="TRAZOS" xmlns="http://www.w3.org/2000/svg" viewBox="0 0 78 83"><defs><style>.cls-1{fill:none;stroke:#727070;stroke-linecap:round;stroke-linejoin:round;stroke-width:3px;}</style></defs><path class="cls-1" d="M56,49.64V25.91c0-6.62-4.42-12-9.82-12H31.33c-5.41,0-9.83,5.42-9.83,12V49.64"/><line class="cls-1" x1="10.24" y1="49.64" x2="67.91" y2="49.64"/><line class="cls-1" x1="10.24" y1="71.14" x2="67.91" y2="71.14"/><line class="cls-1" x1="18.39" y1="50.91" x2="18.39" y2="69.14"/><line class="cls-1" x1="29.37" y1="50.81" x2="29.37" y2="69.97"/><line class="cls-1" x1="40.28" y1="50.81" x2="40.28" y2="69.97"/><line class="cls-1" x1="50.68" y1="50.81" x2="50.68" y2="69.97"/><line class="cls-1" x1="61.82" y1="50.45" x2="61.82" y2="69.61"/><line class="cls-1" x1="38.98" y1="13.87" x2="38.98" y2="48.47"/><line class="cls-1" x1="15.93" y1="60.39" x2="20.86" y2="60.39"/><line class="cls-1" x1="26.91" y1="60.39" x2="31.83" y2="60.39"/><line class="cls-1" x1="37.58" y1="60.39" x2="42.51" y2="60.39"/><line class="cls-1" x1="48.21" y1="60.39" x2="53.14" y2="60.39"/><line class="cls-1" x1="59.35" y1="60.39" x2="64.28" y2="60.39"/></svg>