<svg id="TRAZOS" xmlns="http://www.w3.org/2000/svg" viewBox="0 0 78 83"><defs><style>.cls-1{fill:none;stroke:#727070;stroke-linecap:round;stroke-linejoin:round;stroke-width:3px;}</style></defs><path class="cls-1" d="M59.13,55,59,36.91c0-.34.09.17,0-.17H63l-21-22.07-1.17,1L21.53,36.14l-.45.51h4.43c-.09.35-.18-.08.09.26V55"/><polyline class="cls-1" points="61.28 47.13 70.33 47.13 70.33 66.96 13.77 66.96 13.77 47.13 24.81 47.13"/><line class="cls-1" x1="26.08" y1="47.12" x2="32.71" y2="47.12"/><line class="cls-1" x1="32.71" y1="51.52" x2="32.71" y2="47.12"/><line class="cls-1" x1="32.71" y1="51.9" x2="39.34" y2="51.9"/><line class="cls-1" x1="39.34" y1="56.3" x2="39.34" y2="51.9"/><line class="cls-1" x1="39.65" y1="56.3" x2="46.28" y2="56.3"/><line class="cls-1" x1="46.28" y1="60.69" x2="46.28" y2="56.3"/><line class="cls-1" x1="46.28" y1="60.69" x2="52.91" y2="60.69"/><line class="cls-1" x1="52.91" y1="65.09" x2="52.91" y2="60.69"/></svg>