<svg id="TRAZOS" xmlns="http://www.w3.org/2000/svg" viewBox="0 0 78 83"><defs><style>.cls-1{fill:none;stroke:#727070;stroke-linecap:round;stroke-linejoin:round;stroke-width:3px;}.cls-2{fill:#727070;}</style></defs><path class="cls-1" d="M59.94,31.88A19.41,19.41,0,0,1,40.3,51.06,19.41,19.41,0,0,1,20.67,31.88"/><line class="cls-1" x1="20.67" y1="31.88" x2="59.54" y2="31.88"/><line class="cls-1" x1="38.58" y1="51.06" x2="30.89" y2="61.75"/><line class="cls-1" x1="44.76" y1="51.84" x2="55.1" y2="66.82"/><path class="cls-2" d="M40.19,15.58c1,.82,1,1.67,0,2.55l-.81.62a4.18,4.18,0,0,0-1.12,1.64,5,5,0,0,0,0,3.61c.85,2.05,3.41,3.46,5.49,2.38,1.71-.89.2-3.48-1.52-2.59-.79.41-1.38-1.45-1.34-1.79.12-.83,1-1.4,1.57-1.91a4.5,4.5,0,0,0,1.42-3c.18-2.29-1.24-4.6-3.72-4.51-1.92.06-1.93,3.06,0,3Z"/><path class="cls-2" d="M49,19.48A1,1,0,0,1,48.93,21l-.8.63A3.77,3.77,0,0,0,47.19,23a4.38,4.38,0,0,0,.07,3.28A3.79,3.79,0,0,0,52.33,28a1.5,1.5,0,0,0-1.51-2.59c-.49.28-.88-.41-.91-.73-.07-.63.35-.88.74-1.26a4.14,4.14,0,0,0,1.57-2.69c.28-2-.93-4.3-3.21-4.21-1.92.07-1.93,3.07,0,3Z"/><path class="cls-2" d="M32.55,19.48A1,1,0,0,1,32.46,21l-.8.63a3.8,3.8,0,0,0-1,1.46,4.44,4.44,0,0,0,.07,3.15c.77,1.82,3.09,3,4.92,2.06s.2-3.48-1.51-2.59c.3,0,.21-.12-.28-.24a.86.86,0,0,1-.46-1c.07-.66.73-1,1.14-1.35a4,4,0,0,0,1.21-2.64c.15-2-1.09-4-3.24-3.95-1.93.07-1.94,3.07,0,3Z"/><line class="cls-1" x1="15.17" y1="34.01" x2="19.46" y2="34.01"/><line class="cls-1" x1="15.17" y1="34.01" x2="19.46" y2="34.01"/><line class="cls-1" x1="60.37" y1="34.01" x2="64.65" y2="34.01"/><ellipse class="cls-1" cx="25.89" cy="65.77" rx="4.04" ry="3.64"/><line class="cls-1" x1="27.7" y1="62.14" x2="50.77" y2="62.14"/></svg>