<svg id="TRAZOS" xmlns="http://www.w3.org/2000/svg" viewBox="0 0 78 83"><defs><style>.cls-1{fill:none;stroke:#727070;stroke-linecap:round;stroke-linejoin:round;stroke-width:3px;}.cls-2{fill:#727070;}</style></defs><path class="cls-1" d="M59.78,65.63C52.31,48.84,30.48,42.27,11,51"/><path class="cls-2" d="M36.28,49.32c2.53.61,3.68-.93,5.93-1.74C46.47,46,49.08,49.94,53,50c3.27,0,4.8-1.67,7.62-2.75s5.23,2.12,8.35,2.09a1.5,1.5,0,0,0,0-3c-2.53,0-4.15-2.69-6.91-2.64-3,.05-5,2.88-8,3.18-3.77.38-5.22-2.79-8.61-3.15-3-.31-5.87,3.33-8.42,2.71-1.87-.46-2.67,2.43-.8,2.89Z"/><path class="cls-2" d="M52.31,57.38c2.65.88,4.43-1.28,6.72-2.15s3.54.23,5.35,1.44a8.61,8.61,0,0,0,4.47,1.38c1.92.14,1.92-2.86,0-3-3.22-.24-4.87-3.44-8.23-3.29a7.57,7.57,0,0,0-2.72.72c-1.19.51-3.49,2.44-4.79,2-1.84-.61-2.62,2.28-.8,2.89Z"/><line class="cls-1" x1="33.12" y1="47.12" x2="26.13" y2="30.25"/><path class="cls-1" d="M12.44,34.65c-2.83-6.16.76-13.85,8-17.18s15.43-1,18.26,5.11"/><line class="cls-1" x1="38.71" y1="22.58" x2="12.71" y2="34.53"/><line class="cls-1" x1="20.44" y1="16.43" x2="19.3" y2="14.3"/><path class="cls-1" d="M53.7,29.86c0-1.65-3-4.09-6.68-4.09"/><path class="cls-1" d="M53.7,29.86c0-1.78,2.62-4.2,5.85-4.2"/></svg>