<svg id="TRAZOS" xmlns="http://www.w3.org/2000/svg" viewBox="0 0 78 83"><defs><style>.cls-1{fill:none;stroke:#727070;stroke-linecap:round;stroke-linejoin:round;stroke-width:3px;}</style></defs><line class="cls-1" x1="19.39" y1="63.02" x2="19.39" y2="23.48"/><rect class="cls-1" x="8.78" y="7.38" width="21.02" height="15.04" rx="3.32"/><path class="cls-1" d="M28.14,55.44V48.66c0-5,2.62-9.13,5.85-9.13h25.4c3.23,0,5.84,4.09,5.84,9.13v6.78"/><rect class="cls-1" x="28.14" y="55.8" width="6.98" height="7.37"/><rect class="cls-1" x="58.25" y="55.8" width="6.98" height="7.37"/><polygon class="cls-1" points="57.48 28.93 37.25 28.93 34.55 39.53 60.4 39.53 57.48 28.93"/><line class="cls-1" x1="29.83" y1="49.79" x2="38.26" y2="49.88"/><line class="cls-1" x1="63.55" y1="49.84" x2="57.14" y2="49.84"/><line class="cls-1" x1="32.86" y1="38.3" x2="26.01" y2="38.3"/><line class="cls-1" x1="60.4" y1="38.3" x2="67.37" y2="38.3"/><line class="cls-1" x1="28.14" y1="55.8" x2="63.91" y2="55.8"/></svg>