<svg id="TRAZOS" xmlns="http://www.w3.org/2000/svg" viewBox="0 0 78 83"><defs><style>.cls-1{fill:none;stroke:#727070;stroke-linecap:round;stroke-linejoin:round;stroke-width:3px;}.cls-2{fill:#727070;}</style></defs><rect class="cls-1" x="14.58" y="48.12" width="55.61" height="18.39"/><line class="cls-1" x1="14.58" y1="54.34" x2="26.05" y2="54.34"/><line class="cls-1" x1="29.24" y1="61.88" x2="37.85" y2="61.88"/><line class="cls-1" x1="45.93" y1="54.34" x2="56.28" y2="54.34"/><line class="cls-1" x1="58.38" y1="59.37" x2="70.18" y2="59.37"/><path class="cls-1" d="M39.56,44.67c-9.24-2.26-12.74-11.28-3.89-19.4"/><path class="cls-1" d="M41.08,34.41c-4.12-1-6.79-3.76-4.84-9.14"/><path class="cls-2" d="M40.89,35.94c4.84.92,7.19-5.66,5.49-9.33-1.6-3.43-6.31-4.59-4.63-9.06.66-1.77,2.08-3.61.89-5.47-1-1.62-3.64-.12-2.59,1.51.46.73-1.48,3.43-1.72,4.33a5.62,5.62,0,0,0,.38,3.92,9.74,9.74,0,0,0,2.46,3.54c1.11,1,2.33,1.57,2.72,3.21.33,1.35-.71,4.74-2.2,4.46-1.89-.36-2.7,2.53-.8,2.89Z"/><path class="cls-2" d="M40.43,13.73c4.62,3.85,9.3,9,11.33,14.7,3,8.52-2.84,15.87-11.68,14.74-1.91-.24-1.89,2.76,0,3,7.92,1,14.69-3.63,15.54-11.9.9-8.78-6.82-17.45-13.07-22.66-1.48-1.23-3.61.89-2.12,2.12Z"/></svg>