<svg id="TRAZOS" xmlns="http://www.w3.org/2000/svg" viewBox="0 0 78 83"><defs><style>.cls-1{fill:none;stroke:#727070;stroke-linecap:round;stroke-linejoin:round;stroke-width:3px;}</style></defs><path class="cls-1" d="M61.71,69.51,61.48,41c0-.42.12.22,0-.21h5.16L40,13.47l-1.49,1.28L14,40.08l-.57.64h5.62c-.11.42-.23-.11.11.31V69.51"/><path class="cls-1" d="M27.61,64V59.21c0-3.56,1.86-6.45,4.15-6.45h18c2.29,0,4.15,2.89,4.15,6.45V64"/><rect class="cls-1" x="27.61" y="64.25" width="4.95" height="5.21"/><rect class="cls-1" x="48.98" y="64.25" width="4.95" height="5.21"/><polygon class="cls-1" points="48.43 45.27 34.08 45.27 32.16 52.76 50.51 52.76 48.43 45.27"/><line class="cls-1" x1="28.81" y1="60.01" x2="34.79" y2="60.07"/><line class="cls-1" x1="52.74" y1="60.04" x2="48.19" y2="60.04"/><line class="cls-1" x1="30.96" y1="51.89" x2="26.1" y2="51.89"/><line class="cls-1" x1="50.51" y1="51.89" x2="55.45" y2="51.89"/><line class="cls-1" x1="27.61" y1="64.25" x2="53" y2="64.25"/></svg>