<svg id="TRAZOS" xmlns="http://www.w3.org/2000/svg" viewBox="0 0 78 83"><defs><style>.cls-1,.cls-2{fill:none;stroke:#727070;stroke-width:3px;}.cls-1{stroke-linecap:round;stroke-linejoin:round;}.cls-2{stroke-miterlimit:10;}</style></defs><path class="cls-1" d="M43,46.39l0-2.58c0-.31.07.16,0-.15h3.32L29.11,23.43l-1,.94L12.33,43.11l-.37.47h3.62c-.07.31-.15-.08.07.23v21"/><line class="cls-1" x1="29.72" y1="64.83" x2="70.5" y2="64.83"/><line class="cls-1" x1="29.72" y1="57.02" x2="70.5" y2="57.02"/><line class="cls-1" x1="34.98" y1="51.39" x2="34.98" y2="63.53"/><line class="cls-1" x1="41.8" y1="51.39" x2="41.8" y2="63.53"/><line class="cls-1" x1="56.91" y1="44.13" x2="56.91" y2="63.53"/><line class="cls-1" x1="64.05" y1="41.85" x2="64.05" y2="63.53"/><ellipse class="cls-2" cx="64.05" cy="24.15" rx="3.73" ry="6.44"/><ellipse class="cls-2" cx="56.91" cy="43.89" rx="3.4" ry="5.31"/><line class="cls-1" x1="64.05" y1="23.75" x2="64.05" y2="41.08"/><line class="cls-1" x1="16.49" y1="64.83" x2="21.46" y2="64.83"/><line class="cls-1" x1="49.1" y1="51.39" x2="49.1" y2="63.53"/></svg>