<svg id="TRAZOS" xmlns="http://www.w3.org/2000/svg" viewBox="0 0 78 83"><defs><style>.cls-1{fill:none;stroke:#727070;stroke-linecap:round;stroke-linejoin:round;stroke-width:3px;}.cls-2{fill:#727070;}</style></defs><rect class="cls-1" x="19.46" y="35.49" width="6.47" height="29.38" rx="3.23"/><rect class="cls-1" x="25.93" y="35.49" width="6.47" height="29.38" rx="3.23"/><rect class="cls-1" x="32.39" y="35.49" width="6.47" height="29.38" rx="3.23"/><rect class="cls-1" x="38.86" y="35.49" width="6.47" height="29.38" rx="3.23"/><line class="cls-1" x1="12.77" y1="35.49" x2="12.65" y2="39.81"/><line class="cls-1" x1="19.46" y1="40.27" x2="12.71" y2="40.27"/><line class="cls-1" x1="45.33" y1="40.27" x2="50.88" y2="40.27"/><path class="cls-2" d="M38.42,19.8c1.56,1,1.53,1.86-.09,2.59l-.79.58a5.31,5.31,0,0,0-.94,1.18,5.53,5.53,0,0,0-.54,3.46,5.38,5.38,0,0,0,5.23,4.5c1.93.14,1.92-2.86,0-3a2.18,2.18,0,0,1-1.88-3.36c.47-.86,1-1,1.72-1.63A4.4,4.4,0,0,0,42.61,21a3.85,3.85,0,0,0-4.19-4.17c-1.89.25-1.91,3.25,0,3Z"/><path class="cls-2" d="M31.29,19.8c1.55,1,1.52,1.86-.09,2.59-.27.19-.54.38-.79.58a5.31,5.31,0,0,0-.94,1.18,5.53,5.53,0,0,0-.54,3.46,5.38,5.38,0,0,0,5.23,4.5c1.92.14,1.92-2.86,0-3a2.18,2.18,0,0,1-1.88-3.36c.47-.86,1-1,1.72-1.63A4.4,4.4,0,0,0,35.48,21a3.85,3.85,0,0,0-4.19-4.17c-1.89.25-1.91,3.25,0,3Z"/><path class="cls-1" d="M58.49,64.74c-7.07-1.74-9.74-8.63-3-14.83"/><path class="cls-1" d="M59.65,56.89c-3.15-.78-5.19-2.87-3.7-7"/><path class="cls-2" d="M59.81,58.46c3.81.37,5.68-4.47,4.33-7.47-1.1-2.47-4.65-3.51-3.82-6.6.44-1.64,1.66-3.07.63-4.75s-3.61-.13-2.59,1.52c.29.47-1.28,3.07-1.35,3.88a6.26,6.26,0,0,0,1.21,3.71c.93,1.45,3,2.29,3.31,4A2.28,2.28,0,0,1,61,54.73a3,3,0,0,0-1,.57c-.51.52-.57.57-.17.16-1.92-.19-1.91,2.81,0,3Z"/><path class="cls-2" d="M58.9,41.34a31.88,31.88,0,0,1,7.75,9.23c3.36,6.37,0,13.56-7.76,12.67-1.92-.22-1.9,2.78,0,3,6,.69,11.17-2.56,12.15-8.85,1.09-7.07-5-14-10-18.18-1.47-1.23-3.6.88-2.12,2.13Z"/></svg>