<svg id="TRAZOS" xmlns="http://www.w3.org/2000/svg" viewBox="0 0 78 83"><defs><style>.cls-1{fill:none;stroke:#727070;stroke-linecap:round;stroke-linejoin:round;stroke-width:3px;}</style></defs><path class="cls-1" d="M65.42,67.54l-.22-26.8c0-.44.11.23,0-.22h5L44.32,11.71l-1.45,1.34L19,39.74l-.56.67h5.47c-.11.44-.22-.11.11.33v26.8"/><line class="cls-1" x1="59.95" y1="27.74" x2="59.95" y2="18.69"/><rect class="cls-1" x="34.98" y="45.57" width="19.06" height="13.62"/><polygon class="cls-1" points="58.73 67.54 30.3 67.54 34.9 59.18 54.05 59.18 58.73 67.54"/><path class="cls-1" d="M38.06,30.07A9.12,9.12,0,0,1,51,29.86"/><path class="cls-1" d="M40.3,34.49a5.7,5.7,0,0,1,8-.52"/><path class="cls-1" d="M42.58,38.66a2.74,2.74,0,0,1,3.86,0"/></svg>