<svg id="TRAZOS" xmlns="http://www.w3.org/2000/svg" viewBox="0 0 78 83"><defs><style>.cls-1{fill:none;stroke:#727070;stroke-linecap:round;stroke-linejoin:round;stroke-width:3px;}.cls-2{fill:#727070;}</style></defs><rect class="cls-1" x="17.03" y="40.5" width="50.11" height="22.6" rx="7.13"/><line class="cls-1" x1="13.43" y1="40.56" x2="71.21" y2="40.56"/><rect class="cls-1" x="46.78" y="40.56" width="10.71" height="10.63"/><path class="cls-2" d="M31.18,23.87c1.94-.07-.5,2.57-.85,2.9a4.11,4.11,0,0,0-1.09,1.6,4.83,4.83,0,0,0,.06,3.49c.84,2,3.33,3.33,5.35,2.28,1.71-.88.2-3.47-1.52-2.59-.7.36-1.23-1.35-1.19-1.63.11-.79,1-1.3,1.49-1.77a4.34,4.34,0,0,0,1.37-2.91c.18-2.23-1.22-4.45-3.62-4.37-1.93.07-1.94,3.07,0,3Z"/><path class="cls-2" d="M23.85,27.58a.94.94,0,0,1-.13,1.28l-.77.6A3.88,3.88,0,0,0,22,30.88a4.3,4.3,0,0,0,.08,3.06,3.67,3.67,0,0,0,4.8,2c1.72-.89.2-3.48-1.51-2.59.33,0,.26-.11-.21-.23a.76.76,0,0,1-.41-.89c.07-.61.7-.87,1.08-1.24A3.82,3.82,0,0,0,27,28.42c.15-1.93-1.07-3.91-3.16-3.84-1.93.07-1.94,3.07,0,3Z"/><line class="cls-1" x1="62.05" y1="40.56" x2="62.05" y2="19.81"/><line class="cls-1" x1="53.35" y1="19.81" x2="62.05" y2="19.81"/><line class="cls-1" x1="52.74" y1="25.04" x2="52.74" y2="19.81"/></svg>