<svg id="TRAZOS" xmlns="http://www.w3.org/2000/svg" viewBox="0 0 78 83"><defs><style>.cls-1{fill:none;stroke:#727070;stroke-linecap:round;stroke-linejoin:round;stroke-width:3px;}.cls-2{fill:#727070;}</style></defs><path class="cls-1" d="M37.34,63.25c-5.9-1.45-8.13-7.21-2.48-12.39"/><path class="cls-1" d="M38.32,56.69c-2.64-.65-4.35-2.4-3.1-5.83"/><path class="cls-2" d="M38.45,58.25a4.86,4.86,0,0,0,3.66-2,5.48,5.48,0,0,0,0-4.82c-1-1.85-3.89-2.92-2.79-5.24.63-1.33,1.75-2.54.86-4a1.5,1.5,0,0,0-2.59,1.51,9.37,9.37,0,0,0-1.71,2.77,4.66,4.66,0,0,0,.8,3.28c.76,1.3,2.55,2.14,2.91,3.55a1.63,1.63,0,0,1-.34,1.4,2.74,2.74,0,0,0-.89.52c-.48.46-.47.47,0,.06-1.92-.19-1.91,2.81,0,3Z"/><path class="cls-2" d="M38.08,44c3,2.42,6.23,4.81,7.22,8.75,1.33,5.28-2.16,9.65-7.62,9-1.92-.22-1.9,2.78,0,3a9.57,9.57,0,0,0,10.86-8c1.09-6.54-3.7-11.18-8.33-14.87-1.5-1.19-3.64.92-2.13,2.12Z"/><path class="cls-1" d="M53.62,67.39v-21c0-7.42-6.46-13.5-14.35-13.5h0c-7.9,0-14.36,6.08-14.36,13.5v21"/><line class="cls-1" x1="18.26" y1="67.39" x2="60.36" y2="67.39"/><line class="cls-1" x1="18.26" y1="67.39" x2="18.26" y2="24.46"/><line class="cls-1" x1="60.36" y1="67.39" x2="60.36" y2="23.33"/><line class="cls-1" x1="10.31" y1="22.76" x2="67.05" y2="22.76"/></svg>