<svg id="TRAZOS" xmlns="http://www.w3.org/2000/svg" viewBox="0 0 78 83"><defs><style>.cls-1,.cls-3{fill:none;stroke:#727070;stroke-width:3px;}.cls-1{stroke-linecap:round;stroke-linejoin:round;}.cls-2{fill:#727070;}.cls-3{stroke-miterlimit:10;}</style></defs><line class="cls-1" x1="14.46" y1="47.61" x2="69.69" y2="47.61"/><path class="cls-2" d="M22.35,59.1c2.11.66,3.33-.32,5.07-1.54,2.07-1.46,2.39-2.47,5.58-.63.77.45,1.33,1.33,2.1,1.81A8.1,8.1,0,0,0,41,59.8c2.57-.43,3.75-2.34,6-3.17,2.66-1,4.1,1.55,6.66,2.19a6.91,6.91,0,0,0,5.75-1.1c1.48-.92,2.47-2.5,4.49-1.88.27.08,1.6,1.51,1.83,1.66,1.51,1,3.51,1.77,5.26,1.16s1-3.52-.8-2.89c-2.48.86-3.69-2.4-5.48-3.11-1.51-.61-2.82-.14-4.21.6-1.11.59-2,1.74-3.12,2.23-2.64,1.12-3.87-.37-6.15-1.56-1.25-.67-1.94-1.2-3.45-1-1.89.28-3.13,2-4.71,2.87-3.81,2.12-6,0-9.13-2a5.49,5.49,0,0,0-4.51-1c-1.84.48-4.39,4-6.27,3.44s-2.64,2.32-.8,2.89Z"/><path class="cls-2" d="M21.46,66.26c1.63.51,2.61.08,4.06-.78,2.27-1.35,2.94-3.6,6.84-1.37.69.4,1.19,1.33,1.89,1.79,3.83,2.55,7.19.52,10.66-1.24,4.38-2.22,8.19,3.43,13,.58.73-.42,1.3-1.44,2.05-1.75,1.69-.7,3.42.36,4.69,1.05,2.18,1.21,2.88,2,5.41,1.28a1.5,1.5,0,0,0-.8-2.89c-2.27.65-4.78-3.2-7.16-3.4a5,5,0,0,0-3.09.89c-.75.46-1.28,1.3-2,1.74-3.3,1.93-4.15.51-6.66-.84-1.34-.72-2.26-1.27-3.82-1-2.32.45-3.76,2.7-6,3.43-3.48,1.14-5.06-1.61-7.58-3.09A5.55,5.55,0,0,0,28.89,60c-1.91.4-4.85,4-6.63,3.41s-2.64,2.32-.8,2.89Z"/><line class="cls-1" x1="26.21" y1="47.61" x2="26.21" y2="24.89"/><ellipse class="cls-3" cx="26.21" cy="22.38" rx="6.51" ry="10.76"/></svg>