<svg id="TRAZOS" xmlns="http://www.w3.org/2000/svg" viewBox="0 0 78 83"><defs><style>.cls-1{fill:#727070;}.cls-2{fill:none;stroke:#727070;stroke-linecap:round;stroke-linejoin:round;stroke-width:3px;}</style></defs><path class="cls-1" d="M29.72,55.06a5.45,5.45,0,0,1,5.74-.88c.83.36,1.8,1.71,2.57,2.23a7.86,7.86,0,0,0,4.18,1.45,10,10,0,0,0,5.32-1.09c1.5-.89,2-2.89,3.6-3.6,1.76-.79.24-3.37-1.51-2.59s-2.38,3-4.25,3.85c-3.53,1.64-6-1.25-8.65-3-3.23-2.25-5.64-1-8.51,1.09-1.53,1.14,0,3.75,1.51,2.59Z"/><rect class="cls-2" x="18.25" y="19.61" width="42.96" height="52.42"/><line class="cls-2" x1="18.25" y1="34.31" x2="61.21" y2="34.31"/><ellipse class="cls-2" cx="28.89" cy="27.71" rx="2.83" ry="2.54"/><ellipse class="cls-2" cx="39.94" cy="53.8" rx="10.95" ry="10.3"/><line class="cls-2" x1="47.64" y1="24.32" x2="54.14" y2="24.32"/><line class="cls-2" x1="47.64" y1="29.31" x2="54.14" y2="29.31"/></svg>