<svg id="TRAZOS" xmlns="http://www.w3.org/2000/svg" viewBox="0 0 78 83"><defs><style>.cls-1{fill:#727070;}.cls-2{fill:none;stroke:#727070;stroke-linecap:round;stroke-linejoin:round;stroke-width:3px;}</style></defs><path class="cls-1" d="M10.63,53.71c2.81,1.45,3.77.22,6.4-.92,4.87-2.11,5.41,1.43,9.4,1.91,3.57.43,4.23-3.47,7.74-3.57,2.62-.08,4.17,2.4,6.56,2.89,2.23.46,3.46-.89,5.35-1.82,5-2.48,5.19,1.14,9.37,1.51,2.92.26,4.87-3.38,7.79-2.62,2.46.64,3.1,3.23,6.05,3.31,1.93.06,1.93-2.94,0-3-2.8-.08-4.18-3.75-7.17-3.75-3.45,0-4.48,4-8.22,2.15-1.95-.95-3-2.41-5.38-2.15-3.26.36-4.78,3.9-8.31,2.82-2.2-.66-3.51-2.31-6-2.34s-3.43,1.26-5.33,2.24c-3.76,2-4.52-1.41-8-1.93-2.9-.44-6.35,3.9-8.71,2.67-1.71-.88-3.23,1.71-1.51,2.6Z"/><path class="cls-1" d="M10.63,62.59c2.81,1.46,3.77.23,6.4-.92,4.87-2.11,5.41,1.44,9.4,1.92C30,64,30.66,60.12,34.17,60c2.62-.08,4.17,2.4,6.56,2.9,2.23.46,3.46-.89,5.35-1.82,5-2.49,5.19,1.14,9.37,1.51,2.92.25,4.87-3.39,7.79-2.63,2.46.64,3.1,3.23,6.05,3.32,1.93.06,1.93-2.94,0-3-2.8-.08-4.18-3.76-7.17-3.76-3.45,0-4.48,4-8.22,2.16-1.95-1-3-2.41-5.38-2.16-3.26.36-4.78,3.9-8.31,2.83-2.2-.67-3.51-2.31-6-2.35s-3.43,1.26-5.33,2.25c-3.76,2-4.52-1.42-8-1.94-2.9-.43-6.35,3.9-8.71,2.68-1.71-.89-3.23,1.7-1.51,2.59Z"/><line class="cls-2" x1="35.16" y1="26.53" x2="35.16" y2="43.54"/><line class="cls-2" x1="50.34" y1="26.53" x2="50.34" y2="43.54"/><line class="cls-2" x1="35.16" y1="32.13" x2="50.34" y2="32.13"/><line class="cls-2" x1="35.87" y1="39.36" x2="50.34" y2="39.36"/><path class="cls-2" d="M41.65,26c0-3,2-5.47,4.34-5.47S50.34,23,50.34,26"/><path class="cls-2" d="M26.47,26c0-3,2-5.47,4.35-5.47S35.16,23,35.16,26"/></svg>