<svg id="TRAZOS" xmlns="http://www.w3.org/2000/svg" viewBox="0 0 78 83"><defs><style>.cls-1{fill:none;stroke:#727070;stroke-linecap:round;stroke-linejoin:round;stroke-width:3px;}</style></defs><path class="cls-1" d="M48,65.31H20.09a4.51,4.51,0,0,1-4.51-4.51V36.91a4.51,4.51,0,0,1,4.51-4.51H48a4.51,4.51,0,0,1,4.51,4.51h0"/><path class="cls-1" d="M24.73,30.53V28c0-6,4.19-10.95,9.32-10.95h0c5.12,0,9.32,4.93,9.32,11v2.71"/><ellipse class="cls-1" cx="33.2" cy="45.88" rx="3.93" ry="3.5"/><line class="cls-1" x1="33.2" y1="59.04" x2="33.2" y2="49.8"/><ellipse class="cls-1" cx="59.41" cy="52.77" rx="12.51" ry="12.61"/><line class="cls-1" x1="53.13" y1="53.77" x2="57.41" y2="58.75"/><line class="cls-1" x1="65.69" y1="48.23" x2="57.41" y2="58.75"/></svg>