<svg id="TRAZOS" xmlns="http://www.w3.org/2000/svg" viewBox="0 0 78 83"><defs><style>.cls-1{fill:none;stroke:#727070;stroke-linecap:round;stroke-linejoin:round;stroke-width:3px;}</style></defs><ellipse class="cls-1" cx="29.28" cy="17.05" rx="4.47" ry="4.59"/><path class="cls-1" d="M20.39,68.73l35.5-11.86c1.9-.64,3.09-2.3,2.62-3.69h0c-.46-1.39-2.41-2-4.32-1.37L22.88,62.27"/><path class="cls-1" d="M19.84,68.91a3.33,3.33,0,0,1-4.38-1.55l-1.51-4a3.31,3.31,0,0,1,2.26-4.06l.86-.33a3.32,3.32,0,0,1,4.38,1.55l.61,1.6"/><line class="cls-1" x1="27.54" y1="21.68" x2="31.39" y2="33.54"/><line class="cls-1" x1="18.69" y1="32.65" x2="31.43" y2="33.74"/><line class="cls-1" x1="32.54" y1="37.83" x2="33.53" y2="40.12"/><line class="cls-1" x1="26.52" y1="42.1" x2="33.62" y2="40.46"/><line class="cls-1" x1="32.36" y1="56.64" x2="26.52" y2="42.1"/><line class="cls-1" x1="42.3" y1="39.8" x2="43.47" y2="42.52"/><line class="cls-1" x1="36.36" y1="44.16" x2="43.47" y2="42.52"/><line class="cls-1" x1="40.81" y1="55.5" x2="36.17" y2="44.33"/><line class="cls-1" x1="37.03" y1="34.33" x2="70.42" y2="40.79"/><path class="cls-1" d="M41.6,29.7c0-3.76-3.79-9.3-8.48-9.3"/></svg>