<svg id="TRAZOS" xmlns="http://www.w3.org/2000/svg" viewBox="0 0 78 83"><defs><style>.cls-1{fill:none;stroke:#727070;stroke-linecap:round;stroke-linejoin:round;stroke-width:3px;}</style></defs><ellipse class="cls-1" cx="21.9" cy="58.61" rx="9.56" ry="9.16"/><path class="cls-1" d="M27,50.09V19.85c0-3.88-2.29-7.06-5.09-7.06h0c-2.8,0-5.09,3.18-5.09,7.06V50.36"/><line class="cls-1" x1="21.9" y1="49.45" x2="21.9" y2="33.22"/><line class="cls-1" x1="51.84" y1="28.17" x2="51.84" y2="61.29"/><line class="cls-1" x1="37.99" y1="44.79" x2="68.29" y2="44.79"/><line class="cls-1" x1="44.6" y1="51.86" x2="59.43" y2="37.03"/><line class="cls-1" x1="44.77" y1="36.57" x2="58.83" y2="50.63"/><line class="cls-1" x1="39.43" y1="40.65" x2="35.48" y2="44.91"/><line class="cls-1" x1="39.43" y1="49.18" x2="35.15" y2="45.32"/><line class="cls-1" x1="46.86" y1="56.85" x2="51.39" y2="60.96"/><line class="cls-1" x1="56.73" y1="57.02" x2="51.92" y2="61.29"/><line class="cls-1" x1="46.38" y1="30.98" x2="52.02" y2="26.54"/><line class="cls-1" x1="58.3" y1="31.54" x2="52.5" y2="26.7"/><line class="cls-1" x1="65.08" y1="39.94" x2="69.11" y2="44.45"/><line class="cls-1" x1="65.03" y1="50.46" x2="69.1" y2="44.79"/></svg>