<svg id="TRAZOS" xmlns="http://www.w3.org/2000/svg" viewBox="0 0 78 83"><defs><style>.cls-1,.cls-2{fill:none;stroke:#727070;stroke-width:3px;}.cls-1{stroke-linecap:round;stroke-linejoin:round;}.cls-2{stroke-miterlimit:10;}</style></defs><path class="cls-1" d="M60.25,54.72l-.18-13.84c0-.37.18-.19,0-.56H64.2L43,16.66l-1.2,1.1L22.09,39.68l-.45.55h4.49c-.09.37-.09-.09.09.37V62.84"/><path class="cls-1" d="M50.8,56.18V46.29a4.5,4.5,0,0,0-4.49-4.5H39.8a4.89,4.89,0,0,0-4.86,4.86l.18,17"/><path class="cls-1" d="M10.9,62.43a38.27,38.27,0,0,1,11.56.28c5.5,1,7.89,2.75,9.54,4.12l.18.09a51.54,51.54,0,0,1,16.33-8.34,53.53,53.53,0,0,1,19.17-2.3"/><ellipse class="cls-2" cx="14.76" cy="53.62" rx="3.85" ry="6.88"/><line class="cls-1" x1="14.76" y1="54.36" x2="14.76" y2="60.96"/><line class="cls-1" x1="55.94" y1="30.42" x2="55.94" y2="22.99"/></svg>