<svg id="TRAZOS" xmlns="http://www.w3.org/2000/svg" viewBox="0 0 78 83"><defs><style>.cls-1,.cls-2{fill:none;stroke:#727070;stroke-linejoin:round;stroke-width:3px;}.cls-2{stroke-linecap:round;}</style></defs><path class="cls-1" d="M60.1,67.19l-.23-26.82c0-.45.11.22,0-.22h5L39,11.32l-1.46,1.34L13.61,39.36l-.56.67h5.48c-.12.45-.23-.11.11.34V67.19"/><line class="cls-2" x1="18.67" y1="67.19" x2="60.1" y2="67.19"/><path class="cls-2" d="M31.78,54.27c-.91-2.14-2.77-10.58,3.11-14,2.32-1.33,9.23-2.75,12.68-4.13"/><path class="cls-2" d="M47.57,36.42c-.75,2.82.19,9.18.3,10.75.66,10.11-7.47,14.68-11,13.31"/><path class="cls-2" d="M26.74,66.43c7.41-2.93,12.46-13.2,12.87-20.34"/></svg>