<svg id="TRAZOS" xmlns="http://www.w3.org/2000/svg" viewBox="0 0 78 83"><defs><style>.cls-1{fill:none;stroke:#727070;stroke-linecap:round;stroke-linejoin:round;stroke-width:3px;}.cls-2{fill:#727070;}</style></defs><path class="cls-1" d="M36.26,48.07c-9.73-2.38-13.41-11.88-4.1-20.42"/><path class="cls-1" d="M37.87,37.26c-4.34-1.07-7.16-3.95-5.11-9.61"/><path class="cls-2" d="M37.68,38.8c5,1,7.45-5.91,5.69-9.71-1.69-3.64-6.66-4.84-4.87-9.62.69-1.83,2.17-3.75.93-5.67-1-1.62-3.64-.12-2.59,1.51.53.82-1.53,3.62-1.79,4.62A5.79,5.79,0,0,0,35.44,24,10.1,10.1,0,0,0,38,27.69c1.18,1.1,2.47,1.68,2.9,3.43.35,1.44-.76,5.1-2.42,4.79-1.88-.36-2.69,2.53-.8,2.89Z"/><path class="cls-2" d="M37.23,15.44c5,4.2,10.5,10.1,12.38,16.56,2.53,8.75-4.09,15.68-12.8,14.57-1.91-.24-1.89,2.76,0,3,8.27,1.06,15.29-3.73,16.25-12.32,1-9.28-7.12-18.44-13.71-23.93-1.47-1.23-3.6.88-2.12,2.12Z"/><polyline class="cls-1" points="46.69 59.63 54.97 63.01 52.51 68.62 39.4 62.87"/><polyline class="cls-1" points="31.34 59.63 17.53 53.27 19.99 47.66 39.21 55.75"/><polyline class="cls-1" points="39.21 55.75 57.16 48.41 59.6 54.03 46.69 59.63"/><polyline class="cls-1" points="38.98 62.69 24.56 69.22 22.12 63.6 30.95 59.77"/></svg>