<svg id="TRAZOS" xmlns="http://www.w3.org/2000/svg" viewBox="0 0 78 83"><defs><style>.cls-1,.cls-2,.cls-3{fill:none;stroke:#727070;stroke-width:3px;}.cls-1,.cls-2{stroke-linejoin:round;}.cls-2{stroke-linecap:round;}.cls-3{stroke-miterlimit:10;}</style></defs><path class="cls-1" d="M57.66,46.76l0-7.56c0-.45.12.23,0-.22h5.11L36.43,9.73,35,11.09,10.7,38.18l-.57.68h5.56c-.11.46-.23-.11.11.34V66.41"/><line class="cls-2" x1="52.3" y1="25.99" x2="52.3" y2="16.81"/><line class="cls-2" x1="15.83" y1="66.41" x2="37.83" y2="66.41"/><rect class="cls-3" x="50.61" y="56.36" width="15.21" height="10.05"/><polyline class="cls-3" points="36.88 66.41 34.73 66.41 34.73 56.36 50.61 56.36 50.61 66.41 36.88 66.41"/><rect class="cls-3" x="46.05" y="46.76" width="16.69" height="9.15"/><polyline class="cls-2" points="49.13 45.51 49.13 32.86 23.29 32.86 23.29 66.41 37.83 66.41"/></svg>