<svg id="TRAZOS" xmlns="http://www.w3.org/2000/svg" viewBox="0 0 78 83"><defs><style>.cls-1{fill:#727070;}.cls-2{fill:none;stroke:#727070;stroke-linecap:round;stroke-linejoin:round;stroke-width:3px;}</style></defs><path class="cls-1" d="M12.86,46.84c2.81,1.46,3.77.23,6.4-.91,4.85-2.11,5.39,1.43,9.37,1.91,3.56.43,4.23-3.46,7.73-3.57,2.61-.08,4.16,2.39,6.54,2.89s3.46-.89,5.34-1.82c5-2.47,5.18,1.14,9.35,1.51,2.91.25,4.86-3.38,7.77-2.62,2.46.64,3.1,3.23,6,3.31,1.93.06,1.93-2.94,0-3-2.79-.08-4.17-3.75-7.15-3.75-3.44,0-4.47,4-8.2,2.15-1.95-.95-3-2.4-5.37-2.15-3.26.36-4.78,3.89-8.3,2.82-2.19-.66-3.5-2.3-6-2.34S32.93,42.53,31,43.51c-3.76,2-4.51-1.41-8-1.93-2.89-.44-6.33,3.89-8.69,2.67-1.71-.88-3.23,1.7-1.51,2.59Z"/><path class="cls-1" d="M12.86,55.71c2.81,1.45,3.77.23,6.4-.92,4.85-2.1,5.39,1.43,9.37,1.91,3.56.43,4.23-3.46,7.73-3.56C39,53.05,40.52,55.53,42.9,56s3.46-.88,5.34-1.81c5-2.48,5.18,1.14,9.35,1.5,2.91.26,4.86-3.37,7.77-2.61,2.46.63,3.1,3.22,6,3.31,1.93.05,1.93-2.95,0-3-2.79-.08-4.17-3.75-7.15-3.75-3.44,0-4.47,4-8.2,2.15-1.95-1-3-2.41-5.37-2.15-3.26.36-4.78,3.89-8.3,2.82-2.19-.67-3.5-2.31-6-2.34S32.93,51.39,31,52.38c-3.76,1.94-4.51-1.41-8-1.94-2.89-.43-6.33,3.9-8.69,2.68-1.71-.89-3.23,1.7-1.51,2.59Z"/><path class="cls-1" d="M12.86,64.68c2.81,1.46,3.77.23,6.4-.91,4.85-2.11,5.39,1.43,9.37,1.91,3.56.43,4.23-3.46,7.73-3.57C39,62,40.52,64.5,42.9,65s3.46-.89,5.34-1.82c5-2.48,5.18,1.14,9.35,1.51,2.91.25,4.86-3.38,7.77-2.62,2.46.64,3.1,3.22,6,3.31,1.93.06,1.93-2.94,0-3-2.79-.08-4.17-3.75-7.15-3.75-3.44,0-4.47,4-8.2,2.15-1.95-1-3-2.41-5.37-2.15-3.26.36-4.78,3.89-8.3,2.82-2.19-.66-3.5-2.3-6-2.34S32.93,60.37,31,61.35c-3.76,1.95-4.51-1.41-8-1.93-2.89-.44-6.33,3.89-8.69,2.67-1.71-.88-3.23,1.7-1.51,2.59Z"/><line class="cls-2" x1="36.65" y1="24.63" x2="36.65" y2="41.64"/><line class="cls-2" x1="51.83" y1="24.63" x2="51.83" y2="41.64"/><line class="cls-2" x1="36.65" y1="30.23" x2="51.83" y2="30.23"/><line class="cls-2" x1="37.36" y1="37.46" x2="51.83" y2="37.46"/><path class="cls-2" d="M36.65,24.29c0-1.84-3.35-4.57-7.49-4.57"/><path class="cls-2" d="M51.73,24.29c0-1.84-3.35-4.57-7.49-4.57"/></svg>