<svg id="TRAZOS" xmlns="http://www.w3.org/2000/svg" viewBox="0 0 78 83"><defs><style>.cls-1{fill:none;stroke:#727070;stroke-linecap:round;stroke-linejoin:round;stroke-width:3px;}.cls-2{fill:#727070;}</style></defs><path class="cls-1" d="M51.45,41a16.19,16.19,0,0,1-32.37,0"/><path class="cls-1" d="M27.14,19.06A16.19,16.19,0,0,1,52,39.8"/><line class="cls-1" x1="24.16" y1="16.58" x2="51.49" y2="39.38"/><line class="cls-1" x1="15.05" y1="40.97" x2="51.12" y2="40.97"/><line class="cls-1" x1="33.84" y1="56.91" x2="24.32" y2="70.24"/><line class="cls-1" x1="38.94" y1="57.55" x2="47.46" y2="69.99"/><line class="cls-1" x1="28.08" y1="66.65" x2="45.31" y2="66.65"/><path class="cls-2" d="M21.27,26.26c.52,0,.74,1.21.64,1.59s-.81.89-1.17,1.24a5.62,5.62,0,0,0-1.23,1.43,5,5,0,0,0-.18,3.9,4.34,4.34,0,0,0,6,2,1.5,1.5,0,0,0-1.52-2.59,1.22,1.22,0,0,1-1.75-1c-.16-.93.67-1.36,1.23-1.89a4.68,4.68,0,0,0,1.68-3c.29-2.31-1.12-4.75-3.66-4.66-1.92.07-1.93,3.07,0,3Z"/><path class="cls-2" d="M29.93,30.09c.46,0,0,1.27-.1,1.39a7.86,7.86,0,0,1-.78.62,3.71,3.71,0,0,0-1,1.58,4.31,4.31,0,0,0,.3,3.41,4.31,4.31,0,0,0,5.3,1.32,1.5,1.5,0,0,0-1.51-2.59c-1.07.62-1.54-.89-1-1.6.73-.92,1.58-1.27,1.89-2.57.49-2.1-.74-4.65-3.13-4.56-1.92.07-1.93,3.07,0,3Z"/></svg>