<svg id="TRAZOS" xmlns="http://www.w3.org/2000/svg" viewBox="0 0 78 83"><defs><style>.cls-1,.cls-2{fill:none;stroke:#727070;stroke-width:3px;}.cls-1{stroke-miterlimit:10;}.cls-2{stroke-linecap:round;stroke-linejoin:round;}</style></defs><path class="cls-1" d="M49.08,71.93V54.19c0-3-2-5.4-4.55-5.4H37.94c-2.69,0-4.92,2.65-4.92,5.84v17.3"/><line class="cls-1" x1="20.97" y1="47.85" x2="62.1" y2="47.85"/><line class="cls-1" x1="20.61" y1="39.36" x2="61.75" y2="39.36"/><line class="cls-1" x1="48.99" y1="56.49" x2="62.54" y2="56.49"/><line class="cls-1" x1="20.7" y1="56.49" x2="32.24" y2="56.49"/><line class="cls-1" x1="48.82" y1="64.23" x2="62.37" y2="64.23"/><line class="cls-1" x1="20.53" y1="64.23" x2="32.07" y2="64.23"/><polyline class="cls-2" points="70.52 39.2 41.02 15.71 11.75 39.63"/><path class="cls-1" d="M63,37.9,62.86,71a2.4,2.4,0,0,1-2.19,2.56H21.87A2.4,2.4,0,0,1,19.68,71V37.85"/></svg>