<svg id="TRAZOS" xmlns="http://www.w3.org/2000/svg" viewBox="0 0 78 83"><defs><style>.cls-1,.cls-2{fill:none;stroke:#727070;stroke-width:3px;}.cls-1{stroke-miterlimit:10;}.cls-2{stroke-linecap:round;stroke-linejoin:round;}</style></defs><path class="cls-1" d="M26.08,40.08H12.36A2.86,2.86,0,0,0,9.5,42.94V66.25a2.86,2.86,0,0,0,2.86,2.86h52.7a2.86,2.86,0,0,0,2.85-2.86V42.94a2.86,2.86,0,0,0-2.85-2.86H53.29"/><path class="cls-2" d="M27.3,33.1V22.84c0-2.23,1.36-4,3.05-4h17.1c1.68,0,3,1.8,3,4V33.1"/><line class="cls-1" x1="19.28" y1="67.91" x2="27.3" y2="32.63"/><line class="cls-1" x1="59.47" y1="68.43" x2="50.5" y2="32.63"/><line class="cls-2" x1="11.75" y1="39.4" x2="11.75" y2="34.3"/><line class="cls-2" x1="19.24" y1="38.92" x2="19.24" y2="34.3"/><line class="cls-2" x1="58.15" y1="39.4" x2="58.15" y2="34.49"/><line class="cls-2" x1="65.65" y1="38.94" x2="65.65" y2="34.49"/><line class="cls-2" x1="30.79" y1="17.28" x2="30.79" y2="12.15"/><line class="cls-2" x1="38.29" y1="16.8" x2="38.29" y2="12.15"/><line class="cls-2" x1="46.58" y1="16.8" x2="46.58" y2="12.15"/><path class="cls-1" d="M47,68.65V57.94a7.36,7.36,0,0,0-7.31-7.41H38.1a7.37,7.37,0,0,0-7.31,7.41V68.65"/><line class="cls-2" x1="27.93" y1="32.23" x2="36.39" y2="32.23"/><line class="cls-2" x1="32.64" y1="26.49" x2="40.13" y2="26.49"/><line class="cls-2" x1="27.3" y1="38.05" x2="32.16" y2="38.05"/></svg>