<svg id="TRAZOS" xmlns="http://www.w3.org/2000/svg" viewBox="0 0 78 83"><defs><style>.cls-1,.cls-2{fill:none;stroke:#727070;stroke-width:3px;}.cls-1{stroke-linecap:round;stroke-linejoin:round;}.cls-2{stroke-miterlimit:10;}</style></defs><path class="cls-1" d="M50.83,48.92V40.65a4.46,4.46,0,0,0-4.46-4.45H39.92A4.85,4.85,0,0,0,35.11,41V53.35"/><path class="cls-1" d="M9.4,59a49.15,49.15,0,0,1,12,.27c5.63.91,8.18,2.54,9.81,3.81l.18.1a56.81,56.81,0,0,1,16.81-7.64A61.4,61.4,0,0,1,68,53.45"/><ellipse class="cls-2" cx="15.76" cy="50" rx="3.82" ry="6.81"/><line class="cls-1" x1="15.76" y1="50.82" x2="15.76" y2="57.27"/><line class="cls-1" x1="53.73" y1="24.94" x2="53.73" y2="17.58"/><polyline class="cls-1" points="26.02 54.05 26.02 32.75 43.38 15.49 59.91 32.75 59.91 47.73"/></svg>