<svg id="TRAZOS" xmlns="http://www.w3.org/2000/svg" viewBox="0 0 78 83"><defs><style>.cls-1,.cls-2{fill:none;stroke:#727070;stroke-linejoin:round;stroke-width:3px;}.cls-2{stroke-linecap:round;}.cls-3{fill:#727070;}</style></defs><path class="cls-1" d="M20.1,56.92a18.73,18.73,0,0,1-4.68-12.41h0a.45.45,0,0,1,.45-.44H61a.44.44,0,0,1,.44.44h0c0,4.76-1,8.62-3.94,11.92"/><polyline class="cls-2" points="26.84 42.84 26.84 32.03 38.72 21.1 50.04 32.03 50.04 42.84"/><path class="cls-2" d="M42.58,44.07V35.4a2.51,2.51,0,0,0-2.5-2.51H36.8a2.51,2.51,0,0,0-2.51,2.51v8.67"/><path class="cls-3" d="M9.3,62.41c1.9,1,3.21.43,4.89-.8,1-.74,1.77-1.91,2.82-2.56,5.19-3.16,5.28,0,7.54,2.27,3.93,3.92,9.18,2.65,13.07-.62a33,33,0,0,1,2.58-2.29,5.1,5.1,0,0,1,4.17,1.81A21,21,0,0,0,47.44,62,6.54,6.54,0,0,0,54,61.1c1.14-.85,2-2.74,3.21-3.34,3.29-1.63,4.49,1.89,6.39,3.34s3.5,1.67,5.66.65c1.75-.83.23-3.41-1.51-2.59-2.27,1.07-5.65-4.65-8-5.16-1.85-.39-3.26.43-4.62,1.63-.82.73-1.48,2-2.38,2.59-4.67,3.16-5.71-.41-8.49-2.15-1.56-1-2.75-1.47-4.57-.77-3,1.15-4.37,4.52-7.69,5.3-4.85,1.14-5.5-2.84-8.47-5.06a5.5,5.5,0,0,0-5.56-.69c-1.52.6-5.89,5.62-7.12,5-1.71-.9-3.23,1.68-1.52,2.59Z"/></svg>