<svg id="TRAZOS" xmlns="http://www.w3.org/2000/svg" viewBox="0 0 78 83"><defs><style>.cls-1,.cls-2,.cls-3,.cls-4,.cls-5,.cls-6,.cls-7{fill:none;stroke:#727070;stroke-linecap:round;stroke-width:3px;}.cls-1,.cls-2,.cls-3,.cls-4,.cls-5,.cls-6{stroke-linejoin:round;}.cls-2{stroke-dasharray:2.6 3.46;}.cls-3{stroke-dasharray:3.17 4.23;}.cls-4{stroke-dasharray:2.94 3.92;}.cls-5{stroke-dasharray:3.14 4.19;}.cls-6{stroke-dasharray:3.39 4.52;}.cls-7{stroke-miterlimit:10;}</style></defs><line class="cls-1" x1="59.87" y1="34.3" x2="61.34" y2="34.57"/><line class="cls-2" x1="64.75" y1="35.18" x2="69.01" y2="35.94"/><polyline class="cls-1" points="70.72 36.24 72.19 36.51 71.42 37.79"/><line class="cls-3" x1="69.23" y1="41.4" x2="58.83" y2="58.58"/><polyline class="cls-1" points="57.74 60.38 56.96 61.67 55.46 61.72"/><line class="cls-4" x1="51.54" y1="61.86" x2="19.23" y2="62.99"/><polyline class="cls-1" points="17.27 63.06 15.77 63.12 16.09 61.65"/><line class="cls-5" x1="16.98" y1="57.55" x2="19.64" y2="45.27"/><polyline class="cls-1" points="20.08 43.22 20.4 41.75 21.74 41.08"/><polyline class="cls-6" points="25.78 39.04 41.59 31.04 45.3 31.7"/><line class="cls-1" x1="47.52" y1="32.1" x2="49" y2="32.36"/><path class="cls-7" d="M48.76,32c.27.15-.93-.82-1.12-5.32C47.39,21,51,16.3,55.13,16.3s7.5,4.65,7.5,10.37a11.91,11.91,0,0,1-1.48,5.4"/><line class="cls-1" x1="48.42" y1="31.39" x2="55.13" y2="42.56"/><line class="cls-1" x1="61.75" y1="31.02" x2="55.13" y2="42.56"/><ellipse class="cls-7" cx="55.13" cy="25.2" rx="2.79" ry="3.05"/></svg>