<svg id="TRAZOS" xmlns="http://www.w3.org/2000/svg" viewBox="0 0 78 83"><defs><style>.cls-1,.cls-2,.cls-3{fill:none;stroke:#727070;stroke-width:3px;}.cls-1{stroke-linecap:round;}.cls-1,.cls-3{stroke-linejoin:round;}.cls-2{stroke-miterlimit:10;}</style></defs><polyline class="cls-1" points="23.94 34.4 23.94 71.33 55.63 71.33 55.63 34.4"/><line class="cls-1" x1="23.94" y1="34.4" x2="39.79" y2="15.11"/><line class="cls-1" x1="55.63" y1="34.4" x2="39.79" y2="15.11"/><line class="cls-1" x1="29.43" y1="27.72" x2="19.42" y2="27.72"/><line class="cls-1" x1="62.35" y1="27.98" x2="50.93" y2="27.98"/><line class="cls-1" x1="19.42" y1="27.72" x2="12.31" y2="35.46"/><line class="cls-1" x1="62.35" y1="27.98" x2="69.3" y2="36.46"/><line class="cls-1" x1="12.31" y1="35.46" x2="12.31" y2="71.33"/><line class="cls-1" x1="69.3" y1="36.46" x2="69.3" y2="71.33"/><line class="cls-1" x1="12.31" y1="71.33" x2="24.47" y2="71.33"/><line class="cls-1" x1="56.19" y1="71.33" x2="69.3" y2="71.33"/><path class="cls-2" d="M48,70.69V55.49a4.63,4.63,0,0,0-4.62-4.63H36.62a5,5,0,0,0-5,5V70.69"/><line class="cls-3" x1="62.75" y1="43.27" x2="62.75" y2="45.74"/><line class="cls-3" x1="62.75" y1="52.19" x2="62.75" y2="54.65"/><line class="cls-3" x1="62.75" y1="61.04" x2="62.75" y2="63.51"/><line class="cls-3" x1="18.13" y1="43.3" x2="18.13" y2="45.77"/><line class="cls-3" x1="18.13" y1="52.21" x2="18.13" y2="54.68"/><line class="cls-3" x1="18.13" y1="61.07" x2="18.13" y2="63.54"/><line class="cls-3" x1="12.92" y1="36.46" x2="25.04" y2="36.46"/><line class="cls-3" x1="55.26" y1="37.25" x2="68.93" y2="37.25"/></svg>