<svg id="TRAZOS" xmlns="http://www.w3.org/2000/svg" viewBox="0 0 78 83"><defs><style>.cls-1,.cls-2{fill:none;stroke:#727070;stroke-width:3px;}.cls-1{stroke-linecap:round;stroke-linejoin:round;}.cls-2{stroke-miterlimit:10;}</style></defs><path class="cls-1" d="M58.36,45.37l0-3.17c0-.45.11.22,0-.23h5.08L37.19,12.81l-1.47,1.36-24.18,27-.57.68h5.54c-.11.45-.23-.11.11.34V69.32"/><line class="cls-1" x1="16.65" y1="69.32" x2="27.32" y2="69.32"/><rect class="cls-2" x="51.33" y="59.3" width="15.16" height="10.02"/><polyline class="cls-2" points="37.64 69.32 35.49 69.32 35.49 59.3 51.33 59.3 51.33 69.32 37.64 69.32"/><rect class="cls-2" x="46.78" y="49.73" width="16.64" height="9.12"/><polyline class="cls-1" points="49.85 42.1 49.85 35.87 24.09 35.87 24.09 69.32 27.32 69.32"/></svg>